/* XPM */
static char *_468d420dfa84083af5919793b4d6a5cJ6Cwier1xptk40cO[] = {
/* columns rows colors chars-per-pixel */
"64 64 188 2 ",
"   c #5F7E26",
".  c #607F26",
"X  c #607F28",
"o  c #877E3D",
"O  c #8A7F3C",
"+  c #937B3E",
"@  c #9E793F",
"#  c #A6763E",
"$  c #8E7E40",
"%  c #947D41",
"&  c #9C7C41",
"*  c #987F48",
"=  c #A67A41",
"-  c #A67949",
";  c #B4774C",
":  c #B27849",
">  c #AE7E52",
",  c #BA7754",
"<  c #B87854",
"1  c #C77A63",
"2  c #CD7B6B",
"3  c #C87D68",
"4  c #D47D6F",
"5  c #D57D70",
"6  c #5F8027",
"7  c #618127",
"8  c #65852A",
"9  c #68872D",
"0  c #66892B",
"q  c #6A8A2D",
"w  c #6C8B2F",
"e  c #6A8C2C",
"r  c #6A8E2D",
"t  c #6E902E",
"y  c #6E912E",
"u  c #71932F",
"i  c #6D8630",
"p  c #6C8B30",
"a  c #6D8D31",
"s  c #6E8E30",
"d  c #6F8F32",
"f  c #748433",
"g  c #7E8134",
"h  c #738B34",
"j  c #7C8837",
"k  c #7B8539",
"l  c #7B8A3A",
"z  c #6E9131",
"x  c #6F9131",
"c  c #719232",
"v  c #719432",
"b  c #729433",
"n  c #749533",
"m  c #729234",
"M  c #729534",
"N  c #759635",
"B  c #769935",
"V  c #769936",
"C  c #799B37",
"Z  c #769638",
"A  c #779938",
"S  c #7A9C39",
"D  c #7EA23B",
"F  c #84833C",
"G  c #8A803D",
"H  c #83893E",
"J  c #87913E",
"K  c #A6833D",
"L  c #AA943C",
"P  c #83A63E",
"I  c #84A93E",
"U  c #8D8243",
"Y  c #8B8C45",
"T  c #958146",
"R  c #988B47",
"E  c #98954F",
"W  c #AB8443",
"Q  c #AB8C47",
"!  c #B08E4E",
"~  c #AD9442",
"^  c #B1924A",
"/  c #AC8957",
"(  c #BE8A57",
")  c #A89153",
"_  c #B49452",
"`  c #B19856",
"'  c #83A741",
"]  c #86AA40",
"[  c #AEA545",
"{  c #ACAD44",
"}  c #AEB745",
"|  c #B1BC45",
" . c #B1B349",
".. c #B5A157",
"X. c #BAA553",
"o. c #B9A65D",
"O. c #BB8163",
"+. c #BC8A6A",
"@. c #BF9776",
"#. c #BCAA61",
"$. c #BCBA61",
"%. c #BDBB69",
"&. c #C08D5C",
"*. c #C19964",
"=. c #C88871",
"-. c #D7847A",
";. c #C59477",
":. c #CC937B",
">. c #D09C7F",
",. c #B2C54E",
"<. c #B2D54A",
"1. c #B8D84D",
"2. c #B7C957",
"3. c #B6E24D",
"4. c #B6EB4F",
"5. c #B9E754",
"6. c #BBE55A",
"7. c #BBEB5C",
"8. c #BCE160",
"9. c #C0C06D",
"0. c #C3D16E",
"q. c #C6CB76",
"w. c #C9DE73",
"e. c #C3E26A",
"r. c #C2EE6D",
"t. c #C8EE77",
"y. c #CAF17C",
"u. c #D98685",
"i. c #D39C8D",
"p. c #E4868A",
"a. c #EA858E",
"s. c #EB8695",
"d. c #EC8794",
"f. c #F08796",
"g. c #F2859A",
"h. c #F5899C",
"j. c #DAA18E",
"k. c #D8A495",
"l. c #E6A19F",
"z. c #F787A0",
"x. c #FA86A3",
"c. c #F58BA4",
"v. c #FA89A4",
"b. c #F48EA8",
"n. c #EF95A4",
"m. c #F392AA",
"M. c #F394AB",
"N. c #F59EB5",
"B. c #F898B0",
"V. c #E7A6A7",
"C. c #E0B3A7",
"Z. c #E3B5AB",
"A. c #EFA7B2",
"S. c #F3A1B4",
"D. c #F7A6BA",
"F. c #F5AABD",
"G. c #F8ABBF",
"H. c #E9BDBA",
"J. c #F3B4BB",
"K. c #CEDC83",
"L. c #CDE384",
"P. c #CEEC86",
"I. c #D1E587",
"U. c #D1EC8A",
"Y. c #CCF082",
"T. c #CFF18A",
"R. c #D1F28C",
"E. c #F6AEC1",
"W. c #F5B4C4",
"Q. c #F8B1C3",
"!. c #F4B9C7",
"~. c #FAB7C9",
"^. c #F3BBC9",
"/. c #F1C4C5",
"(. c #F3C2CE",
"). c #F4C5D1",
"_. c #F4CDD4",
"`. c #FBCCD5",
"'. c #F4CFD9",
"]. c #F2D1D7",
"[. c #F4D4DC",
"{. c #F6D9DE",
"}. c #F6DDE2",
"|. c #F9DBE1",
" X c #F6E4E8",
".X c #FAEEEE",
"XX c #F7F5F4",
"oX c #FBFCFB",
/* pixels */
"8 8 9 8 8 8 8 8 8 7 7 8 8 8 8 9 9 8 8 8 8 9 9 w 8 7 7 8 8 8 7 7 7 7 7 e S 9 e c 0 0 0 8 8 9 7 7 7 7 8 9 9 e z c e e n 8 8 8 8 9 ",
"9 9 9 8 8 8 8 8 8 7 7 8 8 9 9 8 8 7 8 8 8 9 9 9 9 e c V 9 8 8 7 7 7 7 8 N 9 0 e e e e 8 9 9 9 7 7 7 8 9 9 9 9 e e e e 9 8 9 9 q ",
"s N s 8 8 9 8 8 8 9 8 8 8 9 9 8 7 7 8 8 8 9 w 9 p N N n 9 8 8 8 8 9 8 7 9 8 8 0 e e 9 q q 8 e 8 8 8 9 p 9 9 9 0 y 8 9 e 0 e z e ",
"e m 9 8 8 9 8 8 9 9 8 8 8 9 9 8 8 8 9 9 9 9 9 9 9 9 8 8 9 9 9 9 8 9 9 8 8 9 s M c z e z s 8 e 9 8 8 9 9 p 9 9 z M e N y N v V V ",
"N N 8 8 9 9 9 9 9 q 8 8 9 9 9 8 8 9 9 9 8 9 9 8 e 9 8 8 9 w p 9 9 9 9 9 8 9 s M e N A V N e e 8 8 9 8 9 s e s c e e c e v z e y ",
"e e 8 8 8 8 9 9 9 8 8 0 9 9 9 9 9 9 9 9 9 9 9 e 8 0 9 9 9 9 s s s s 9 9 9 9 9 9 9 e M V c e 9 9 9 8 8 9 9 9 9 9 9 M D v 9 e e e ",
"8 8 9 8 8 9 8 8 8 8 9 9 9 9 9 e e N e c C s e 9 8 9 s s 9 9 9 s c s s N s 9 9 9 9 9 9 q 8 8 8 9 8 8 9 8 9 9 p s s e V v e e 9 q ",
"9 e 9 9 9 9 9 8 8 8 8 9 9 9 e v S N e n n 9 9 8 e s m s 9 9 9 w s s z M e e 9 e 9 q 9 9 9 8 8 8 8 8 7 7 9 9 s s 9 0 e e z e 9 q ",
"9 9 9 9 9 9 9 9 9 8 8 9 8 9 9 V V y e e y 8 s 9 8 9 s 9 s s s 9 s s s s 9 9 9 9 8 8 9 9 9 8 9 8 9 7 8 9 9 e e 9 9 8 e v S e 9 9 ",
"9 9 9 8 9 9 9 9 9 8 8 9 q q z c V S M v N 0 z c 8 e w 9 s s 9 9 9 s m e e 8 8 9 8 9 9 8 9 9 9 8 8 7 8 9 p 9 8 8 9 9 e c N 9 9 9 ",
"8 9 9 9 9 9 8 7 7 . 8 9 s 9 V C V N z z 0 8 9 9 8 9 9 8 9 e 9 s s s s e 9 8 8 8 9 9 9 9 9 9 8 8 8 7 9 9 9 9 8 8 8 8 9 9 9 9 9 8 ",
"7 8 9 9 9 8 8 8 7 7 9 s c c e y C V e N 0 8 9 8 8 7 8 8 e e 9 s s 9 9 e c 9 8 8 0 9 9 9 9 9 h N 9 9 9 9 9 9 8 8 8 8 9 8 8 9 9 8 ",
"8 8 7 8 9 9 8 8 7 . 9 9 c S e e V y e e 8 8 8 9 e 8 9 s 8 m s 9 9 9 9 9 e s 9 s z e e N N c e s 9 9 8 q 9 9 8 8 8 9 9 9 9 9 9 9 ",
"7 8 8 8 8 9 9 8 7 X 7 8 8 9 e v V v V e 9 e 0 e S Z 8 9 7 q 9 s s 9 e e e c s m v V v C D V 0 8 9 8 e y 9 s 9 7 8 8 9 9 9 9 9 8 ",
"7 7 8 8 8 9 9 9 9 p 9 8 8 p s D V e e y S S V v V e 8 7 8 8 q s z N S c 9 Z e 8 e C v e e M Z 8 7 8 A S 0 s 9 7 8 8 8 9 8 8 9 8 ",
"8 9 9 8 8 9 9 9 9 9 9 8 9 9 9 C V 0 0 y V v V M z 8 7 7 9 8 9 V V S y c 9 e e 8 9 e V ] e 0 z 8 6 8 M V q m s 7 8 8 8 8 8 9 9 8 ",
"8 9 8 8 8 8 9 s 9 8 9 9 9 8 e C u 0 z S y e e e e 9 8 8 9 8 e n z z 9 0 8 8 c 9 9 9 u D e 8 9 8 7 9 M z 8 p 9 7 9 8 8 s 9 9 9 9 ",
"p 9 8 8 8 8 8 8 9 9 9 9 9 8 0 v y e N S S S y A v e 9 9 9 i p 9 e s s 9 9 8 9 9 9 s 9 e e q s e q 9 A z 8 7   7 9 8 8 9 p 9 9 9 ",
"s 9 9 9 8 8 7 7 7 9 8 9 9 e e V v y e e z M N S z e 9 9 9 U F 9 e 9 9 9 9 9 9 s s s 9 9 9 0 V ' e 0 0 e V N 8 8 9 8 8 9 p 9 9 9 ",
"9 9 s s 8 9 8 7 7 9 8 8 9 c S V v e e 0 q e c z e e 9 9 o = & F s j G o G k e s e s s s 9 9 y A v 9 8 9 C S e 9 9 9 8 8 9 9 9 9 ",
"8 8 9 m 9 8 8 7 8 p 9 9 9 c C y e s A e 0 e s e e e h H ! = W ) l R _ ^ ~ R h p e s s s s e q q m s Z s 9 e e 8 8 9 8 8 9 9 8 8 ",
"7 7 8 9 s s 7 7 8 9 9 9 9 A c 0 9 9 s 8 8 e c s s s O ` K.! o.K.Q %.U.P.6.} & h s s s s s 9 q 9 q 9 m s 9 9 9 9 9 9 9 9 9 9 8 9 ",
"7 9 8 8 m N 9 9 9 9 9 9 9 s e e e 9 p 8 8 9 s l + + # ` I.! o.U.q.L.R.R.7.| @ h s s s s s s 9 9 8 8 8 9 p 9 9 9 9 9 9 9 9 9 7 8 ",
"8 9 9 w N N m 9 9 9 9 9 8 8 8 9 9 9 9 8 8 8 k E #.#.#.9.U.%.q.R.R.y.r.r.,.X.;.U h e 9 9 9 9 8 9 9 8 9 9 9 9 9 9 9 9 9 9 9 9 7 7 ",
"8 8 8 9 p 8 8 s z e e 0 8 9 8 8 8 e 8 8 8 8 + o.Y.Y.L.L.T.R.T.Y.Y.8.<.<.^ :.J.+.Y h 9 8 9 9 9 8 8 8 9 9 9 9 9 9 9 9 9 9 9 9 9 9 ",
"8 8 7 7 9 9 8 z M N C v C c 9 8 9 N 9 9 8 8 + [ 5.5.[ ..U.R.t.5.5.{ K W j.J.`./.@.U p 8 9 9 9 8 7 8 9 9 9 9 p p 9 9 9 9 9 9 9 9 ",
"9 8 7 7 8 8 7 9 9 v c V ] c c e e e 8 9 8 8 f J [ [ { 2.P.r.2.{ e.0.$. .*.k.`.`.:.+ s 8 s p 8 8 7 8 9 9 9 9 9 s e z z 9 q 9 9 8 ",
"9 8 7 7 8 9 7 8 s N e y D u N N m 9 9 9 8 8 i U , # | 7.Y.7.} W w.y.r.3.L ;.`.`.k./ l 9 9 8 8 9 8 7 9 9 9 8 9 9 e D V q 8 8 8 8 ",
"7 8 8 8 8 9 8 8 e s e e S n e e 9 9 e 9 8 9 $ 3 a.: | 7.Y.6. .W 1.3.3.1.~ ;.`.`._.C.- f 8 8 8 q 9 8 9 9 9 9 9 e e M e 8 8 9 9 8 ",
"7 7 8 8 9 9 9 9 0 0 z z z 9 8 e e e 8 8 9 p % 2 a.: | 4.6.{ &.-.^ L L ~ >.H..X.X|.Z.- f 8 8 8 9 9 9 9 9 9 9 w e s e 0 8 9 9 9 7 ",
"X 7 7 8 9 8 9 9 e V A z 9 e 9 9 s 9 8 8 9 p % 2 f.2 X.| | ( u.n.2 1 1 3 A.[.oXoX XZ.- f 9 8 8 9 9 9 p 9 8 9 9 e N S 0 8 9 8 7   ",
"X 7 7 8 8 9 N N e e e 0 e e e e e h s s s s % 2 x.z.2 : ; p.N.G.m.m.M.b.W.{.XXoX}.Z.- j 9 9 8 9 9 9 s 9 8 9 w s z y 0 8 8 7 7 X ",
". 7 7 8 9 9 c c y v z 0 v D V u e s s s m s % 2 x.x.g.a.s.S.E.Q.F._.}.E.Q.!.(.[.).V.- l s 9 9 9 9 w m s 9 9 s c z M e 8 8 8 7 . ",
"  . 7 8 8 9 9 c S V v e y D I V z s s s w s % 2 x.c.E.^.N.G.(.[.W.).'.Q.Q.^.[.(.~.l.- f 9 9 9 9 s 9 9 p w s e c z A e e s 9 7 . ",
"  . 7 7 8 9 9 e v e y e e u D S c s s s p 9 G O.d.c.(.[.F.E._. X!.Q.Q.Q.!.]. X!.A.i.T h 9 9 9 9 s s 9 8 9 s N S e 9 9 c 9 9 7 . ",
"7 7 7 8 8 9 s e 9 9 C C e e y s 9 9 p s w 9 9 H , g.b.b.b.F.!.!.W.Q.Q.Q. X}.W.M.=.* s z 9 9 s 9 p s 9 9 9 9 c n e e 9 9 e e 7 7 ",
"p 9 8 9 9 9 Z c e e C C e w 9 9 9 9 e s s 9 q k < g.x.x.c._.(.B.E.].{.W.).!.M.c.2 + 9 9 9 9 9 9 9 9 9 9 e n n e e m S 9 9 e 7 7 ",
"9 9 9 9 8 9 s e 9 8 e n e 9 9 s m c y z z e 9 h R -.g.x.c.).!.c.N.(._.D.D.B.z.p./ F z 9 8 9 9 8 9 s m e s S n 8 8 9 z e e e 8 9 ",
"9 9 9 9 9 9 e e e e e C e 9 w c v y c z s e e e h & -.g.g.c.c.v.v.c.c.c.h.f.a.> j 0 0 8 8 8 8 7 7 s m e e s S w 8 8 8 e 9 e 8 9 ",
"9 e 9 9 e s N S S v e e 8 9 s e e v C z 9 8 8 e 9 h * < , a.v.v.v.v.v.h.3 ; > J c e 9 e 8 7 7 7 7 9 e 9 9 9 m 9 8 9 9 9 8 8 8 9 ",
"e s e 9 e 9 V V n e 9 8 8 e 9 c V c V e e 8 8 8 9 e f g F O.5 4 4 4 5 2 T g j c m c w 9 8 7 7 7 8 e c e 9 8 8 8 8 8 8 9 9 9 9 s ",
"s e c c e 9 e y e h 9 8 9 S c c M c S z e e 9 8 8 9 9 8 9 o + + + + + + 9 8 0 9 e 9 0 8 7 9 z 0 e e M M c 9 8 9 q 8 9 9 9 9 9 e ",
"s s 9 e e 9 e e 9 9 9 8 8 s e e e q 9 s e e e e e e 9 9 9 8 8 9 9 8 8 8 7 8 9 9 e 8 8 8 8 0 z e M 7 e M M 9 8 8 9 9 9 9 9 q q 9 ",
"m S e e e m s e 8 8 8 7 7 8 9 8 8 8 8 q 7 8 9 e e 9 9 9 9 9 9 8 8 8 7 7 8 8 8 9 s 9 8 s M 8 c z S e 7 e z 8 8 9 q 9 9 9 9 8 q 8 ",
"m s e e s Z s 9 8 9 9 8 7 m S s 9 z z z 0 e N e e 9 9 8 8 8 9 9 7 7 9 9 8 8 8 8 9 9 9 q 9 z 0 7 v z 8 0 e s q 8 8 8 9 9 9 8 9 9 ",
"9 9 e s e 9 9 9 8 9 8 8 7 e s m e c V D V V C e 9 9 8 8 8 8 9 8 7 8 8 9 8 8 8 8 9 9 9 0 e m 0 7 e M 0 0 V D e q 9 8 9 9 9 8 8 8 ",
"8 8 8 9 9 9 9 9 8 m m 7 7 7 7 9 0 0 S V u u u e 9 e 8 9 9 8 9 8 7 8 8 8 8 9 9 9 e e e e 9 0 8 0 0 e z e y V V e 9 8 8 8 8 8 9 8 ",
"7 7 7 8 9 9 s e 9 p s 9 9 8 8 N N e c z e v C C w 8 8 9 9 9 9 8 8 9 8 9 8 9 s e e v N s M 0 c A 0 e D v y D V e 9 8 7 9 8 8 9 9 ",
"8 8 8 9 9 9 s 9 8 8 7 s M 9 z S N S V e 9 e u c 9 8 9 q 8 9 w 9 9 9 8 9 9 9 9 z S ' S s s 9 S S 9 e A y P D e q q 7 7 9 8 8 8 8 ",
"7 8 9 9 8 8 9 8 7 7 7 8 9 9 e e 9 N e e c e 8 9 9 8 8 9 9 e m N e 9 9 8 8 8 q e V V e 8 8 0 v v e 9 e e v c q 8 8 8 8 8 8 8 8 8 ",
"7 7 8 7 7 8 8 7 . 7 8 8 8 9 8 8 e c z z s 9 8 9 8 9 c 9 e N m N n N 9 8 9 9 8 0 v D v 8 0 v C V 0 9 c c 8 0 8 8 9 9 9 7 7 8 9 8 ",
"7 7 8 8 8 8 7 7 7 8 7 8 9 9 8 9 e v S N 8 s c e 9 0 N 9 8 9 0 9 C c 8 9 s s 8 8 c C v 8 e S V e 0 e c z 9 9 q 9 s s 9 8 8 9 9 9 ",
"7 7 9 9 8 8 8 8 9 9 8 8 9 9 9 9 8 8 9 z e M s s 9 8 8 8 9 s 8 e V e q 9 9 9 9 8 0 9 m 9 8 e z e e e c e 9 9 8 9 s s 9 8 9 9 9 9 ",
"7 8 9 9 8 8 8 9 9 9 8 8 9 9 9 9 8 8 8 s z e c c e 8 8 z M M s S C e 9 9 8 c m 8 8 p S s s m 9 9 9 c D s 9 s 9 9 s 9 9 9 9 9 7 8 ",
"7 8 9 9 8 8 9 9 9 9 9 8 9 8 9 Z 9 9 m s e V D V A 8 8 c z 8 9 S v 0 9 9 8 c S 9 8 8 s 9 9 p 9 9 e C n e 9 9 9 s s e 9 s 9 7 . 7 ",
"7 7 8 9 9 9 9 p 9 9 9 9 m m 9 9 8 s z 8 s v e e S z 0 V e 8 9 e 7 e e 9 8 e e 9 9 9 e 9 9 9 s 9 9 e 9 e 8 8 8 e c s e 9 8 7 .   ",
"7 7 8 9 9 9 9 p 9 9 9 9 9 s 8 8 9 e s 9 0 e 9 7 e M 9 e c 9 q e y S m N s 8 8 8 8 9 s 9 9 9 9 9 9 9 9 9 9 8 9 9 s e 9 9 8 7 .   ",
"7 7 8 9 9 9 9 9 9 9 9 9 8 8 8 8 w s c c 8 e s 8 9 S c 9 e 9 M V V e 9 m s 9 9 9 8 9 9 s 9 9 8 8 9 9 9 9 9 8 9 8 q 9 9 8 8 7 9 8 ",
"7 7 9 p s 9 0 9 9 9 8 7 8 8 8 8 8 8 e N w 9 9 7 7 9 8 8 8 q s N V e 9 9 9 9 9 8 8 8 9 9 9 9 8 8 9 9 9 9 9 8 8 8 z e 8 8 8 8 8 8 ",
"7 7 8 9 p s 9 9 8 8 8 8 9 9 8 8 7 7 8 e c 8 8 8 8 7 . 7 7 q s z C e 8 8 8 8 8 8 8 9 9 9 9 9 9 q 9 9 9 9 8 8 8 0 S N e 0 8 7 7 7 ",
"7 7 8 9 9 9 9 8 8 7 7 8 9 9 8 8 7 8 9 s s 8 8 8 8 7 7 7 7 9 8 9 v 0 9 s 7 8 8 8 8 9 9 0 9 9 9 9 9 9 9 8 7 8 9 y C u 9 e e 8 8 7 ",
"0 q p p 9 9 9 8 7 7 7 7 7 7 8 8 8 8 9 s 9 8 8 9 9 8 7 7 7 7 7 7 7 7 q p 7 8 9 8 0 9 8 e 9 9 8 9 9 9 8 8 8 9 9 n P y 8 e M q 8 q ",
"v v s 9 9 w 9 8 8 7 7 7 7 7 8 8 8 8 8 8 8 8 8 9 9 8 7 7 7 7 7 . . 6   6 7 9 9 8 q e 0 9 8 8 8 8 q s 9 9 8 8 e e n v 8 8 e 0 e 0 ",
"C y 8 9 9 9 9 9 8 8 8 8 8 8 8 8 8 8 8 8 8 8 e z 9 9 7 7 7 7 7 .     6 0 e z 9 q 9 9 9 9 9 8 7 8 9 s 9 9 8 9 s 9 0 c 9 7 7 e D e "
};
