/* XPM */
static char *_e3d8f453bbb4a918e5855f7eb6e6a0dD5jhV6M1BD8eTlzf[] = {
/* columns rows colors chars-per-pixel */
"64 64 232 2 ",
"   c #5F7E26",
".  c #5F7E29",
"X  c #5D7C36",
"o  c #5D7D3C",
"O  c #607F27",
"+  c #637E2C",
"@  c #697F2F",
"#  c #6B6F37",
"$  c #6D6C3D",
"%  c #716D3E",
"&  c #657536",
"*  c #6A7536",
"=  c #627D33",
"-  c #6B7C34",
";  c #6D743B",
":  c #647C3C",
">  c #6E7A3A",
",  c #707C36",
"<  c #71723D",
"1  c #727D3A",
"2  c #7C5C4D",
"3  c #6C5F5C",
"4  c #7F5653",
"5  c #7E5A51",
"6  c #7B565B",
"7  c #745B5C",
"8  c #587745",
"9  c #5C7B43",
"0  c #55754D",
"q  c #59764A",
"w  c #5B7B4C",
"e  c #4D6F5F",
"r  c #5A6C5B",
"t  c #4F7257",
"y  c #4E715D",
"u  c #547454",
"i  c #597655",
"p  c #5A7A53",
"a  c #52755C",
"s  c #56785B",
"d  c #6B6B46",
"f  c #746545",
"g  c #796546",
"h  c #746B43",
"j  c #796D45",
"k  c #75644C",
"l  c #7C634A",
"z  c #776B4C",
"x  c #7B6A4A",
"c  c #637B43",
"v  c #657748",
"b  c #767644",
"n  c #67675A",
"m  c #75635B",
"M  c #697559",
"N  c #7C7552",
"B  c #665D66",
"V  c #7B5561",
"C  c #755862",
"Z  c #725B64",
"A  c #4C6E64",
"S  c #476D6E",
"D  c #4A6D6C",
"F  c #546A64",
"G  c #586A66",
"H  c #53666C",
"J  c #5D636B",
"K  c #4E7162",
"L  c #4C716A",
"P  c #4F796A",
"I  c #567568",
"U  c #466C72",
"Y  c #496C71",
"T  c #556A72",
"R  c #5B6C75",
"E  c #497378",
"W  c #4A757C",
"Q  c #547577",
"!  c #656569",
"~  c #706D72",
"^  c #657877",
"/  c #80594F",
"(  c #864E5A",
")  c #8A4D5A",
"_  c #914F5D",
"`  c #845355",
"'  c #8A5457",
"]  c #825A52",
"[  c #895B54",
"{  c #84525B",
"}  c #8D525C",
"|  c #8A5B5B",
" . c #94515E",
".. c #99525F",
"X. c #945B5B",
"o. c #82664D",
"O. c #82774C",
"+. c #8E6757",
"@. c #835661",
"#. c #8C5460",
"$. c #865A66",
"%. c #955462",
"&. c #9C5361",
"*. c #9A5965",
"=. c #995B68",
"-. c #A35664",
";. c #AA5665",
":. c #A25966",
">. c #AB5867",
",. c #A35C6A",
"<. c #AC5E6C",
"1. c #B35C6B",
"2. c #BB5D6C",
"3. c #B45F70",
"4. c #87666B",
"5. c #986469",
"6. c #8E6874",
"7. c #966772",
"8. c #927676",
"9. c #A5626D",
"0. c #B8606F",
"q. c #AB6472",
"w. c #A66875",
"e. c #B66876",
"r. c #AF747D",
"t. c #C25E6E",
"y. c #C65F70",
"u. c #C76978",
"i. c #D36A7A",
"p. c #C7707F",
"a. c #5F8126",
"s. c #5F8038",
"d. c #618127",
"f. c #65842B",
"g. c #68862D",
"h. c #67892B",
"j. c #6A8A2D",
"k. c #6D8E2E",
"l. c #6D912E",
"z. c #71932F",
"x. c #648333",
"c. c #6B8433",
"v. c #678836",
"b. c #6C8C31",
"n. c #6E8E31",
"m. c #64833B",
"M. c #6C833A",
"N. c #6C8B3C",
"B. c #718D35",
"V. c #73833B",
"C. c #748A3B",
"Z. c #77883C",
"A. c #6E9131",
"S. c #729434",
"D. c #769935",
"F. c #799B37",
"G. c #74933B",
"H. c #789739",
"J. c #7A9C3A",
"K. c #7DA23A",
"L. c #5E804D",
"P. c #688646",
"I. c #7A8545",
"U. c #779744",
"Y. c #6C8A52",
"T. c #5A8575",
"R. c #6F8875",
"E. c #82A63D",
"W. c #81914B",
"Q. c #81A141",
"!. c #92936D",
"~. c #A28773",
"^. c #487682",
"/. c #4A7B83",
"(. c #597E86",
"). c #687C85",
"_. c #7A7A86",
"`. c #8A7B85",
"'. c #9F7681",
"]. c #AC7A84",
"[. c #B87885",
"{. c #D96F80",
"}. c #C97987",
"|. c #D97585",
" X c #4B828C",
".X c #56848C",
"XX c #4E8690",
"oX c #548A93",
"OX c #5A8A92",
"+X c #5B939D",
"@X c #6F8B8D",
"#X c #64959E",
"$X c #5C97A2",
"%X c #6D9AA3",
"&X c #7DA7AF",
"*X c #7CA7B0",
"=X c #918C90",
"-X c #89979A",
";X c #AB858F",
":X c #B3848E",
">X c #A7949C",
",X c #8BA099",
"<X c #B299A3",
"1X c #89A3A9",
"2X c #97A4AB",
"3X c #9AADB3",
"4X c #91B1B9",
"5X c #A1A4A2",
"6X c #A2B1B8",
"7X c #B9B7BD",
"8X c #C98894",
"9X c #C58C98",
"0X c #DD8492",
"qX c #D7929E",
"wX c #C697A2",
"eX c #D59BA6",
"rX c #E19AA6",
"tX c #E09DA8",
"yX c #C4A3AB",
"uX c #CBACB4",
"iX c #D6A7B1",
"pX c #DAB4B9",
"aX c #E2A8B2",
"sX c #E6B2BC",
"dX c #A5BAC1",
"fX c #B6BCC2",
"gX c #DEBCC3",
"hX c #E8BDC5",
"jX c #B3C1C8",
"kX c #CAC4CA",
"lX c #E8C4CC",
"zX c #ECCED3",
/* pixels */
"f.f.g.g.f.f.f.f.f.f.f.f.f.f.f.h.g.f.f.f.g.g.h.n.f.f.f.f.f.f.f.d.d.d.d.k.F.g.j.l.h.h.h.f.f.f.f.f.f.f.f.f.f.h.S.A.h.z.S.f.f.f.g.g.",
"h.f.f.f.g.f.f.f.f.f.f.- g.g.h.g.f.f.f.f.f.h.h.c.- h.k.S.f.f.f.f.d.d.d.h.F.h.h.k.h.j.j.f.g.g.g.f.f.f.f.g.f.h.j.h.h.h.k.g.f.g.g.g.",
"n.S.n.f.f.g.f.f.f.- & f.f.g.g.f.f.f.f.f.f.h.n.: c.H.F.H.g.f.f.f.f.f.f.f.h.g.f.h.l.k.j.f.g.f.f.f.f.f.x.c.h.h.h.h.j.M.n.f.h.h.n.j.",
"h.S.k.f.f.h.f.f.g.c.; f.f.h.g.f.f.f.g.g.f.h.M.x.h.h.g.h.g.g.g.f.g.g.f.f.f.x.n.A.A.l.j.A.j.f.h.g.f.f.x.c.n.h.h.A.S.n.S.l.S.S.F.S.",
"S.S.f.f.g.h.g.g.g.; $ * - h.h.f.f.g.h.x.f.x.: g.h.g.f.f.h.x.m.h.h.h.g.g.f.h.n.S.A.S.S.S.S.h.h.f.f.g.g.h.k.k.n.S.k.j.S.j.H.S.l.S.",
"k.k.f.f.f.g.h.h.c.h $ * - h.h.h.g.g.x.0 x.c : f.f.x.g.f.x.a p n.n.k.h.h.g.x.h.j.h.A.S.H.S.h.h.h.g.f.f.h.h.h.h.h.h.S.J.A.j.j.h.h.",
"f.f.f.f.f.g.g.g.f.f.c.- h.h.h.h.h.S.m.a v m c x.x.c.n.x.a U K m.S.n.B.S.v.o h.h.x.x.h.g.f.f.f.h.g.x.g.f.g.g.n.n.n.A.J.S.n.n.h.h.",
"h.h.h.g.g.h.f.g.f.f.g.c.c.h.j.S.F.H.i L m $.i f.x.n.N.a U U U A p m.N.P.9 x.h.n.a u x.g.g.f.f.f.u e = f.g.k.n.n.c.g.j.j.A.n.h.g.",
"h.h.h.g.g.h.g.g.f.f.f.- x.g.h.F.F.n.n B @.Z w x.x.x.w U U U U U U D K D K u w a Y A = g.x.x.o a U D X f.h.n.h.c.2 ; h.S.S.h.h.h.",
"g.g.g.f.g.h.g.g.g.f.f.c.; c.A.l.D.U.7 (  .Z P.m.g.m.a U U U U U U U U U U U U U U U K u A A S U U S w h.n.c.= : l < h.S.S.h.h.g.",
"f.h.h.g.h.g.g.f.f.O f.h.n.c.H.F.S.P.{ q.3.n w c f.9 D U U U U U U U U U U U U U S S S U U U U U U U S u x.x.X o g.f.h.h.h.h.g.f.",
"f.f.g.g.g.* @ f.f.f.g.n.S.M.> n.b M { }.q.r u x.f.X A 0 P U U U U U U U U U U y 9 q S U E  X+XoXW U U U a y u X f.g.h.f.f.h.g.f.",
"f.f.f.f.h.; * f.f.d.g.h.S.I.; h.k J @.0.#.H 9 h.h.f.u w L U U U U U U E /.W S c : s /.oX$X4XdXdX*X.XU U U U J r y w g.f.g.h.g.g.",
"f.f.f.f.f.c.c.x.+ O f.f.g.; - l.o.6 ( &.Z D o k.J.G.9 K /.W U U U U W XXoXW S s L W oX%X1X3XkXfX2X#XoXE U U ! V B F m.x.g.g.g.f.",
"f.f.f.f.f.h.h.x.g.c.g.f.- h b H.] ) ) ) @.4.N.A.H.n.a U  X XW  X^.U W W L T ~ ).W Y ! Q R Q @X@XU E .XW U U Y C ( 6 n x.f.g.f.f.",
"f.g.g.f.f.h.h.: x.x.= f.- 4 ` b ] ) ) ) $.4.U.S.A.s.L ^.#X*X&X+X/.a w m.; { }.>XR.v I.Y.9 8 s A U U U U U U D V ,. .d m.g.g.g.f.",
"f.g.f.f.f.g.n.w 9 x.q f.f.- / ] ] ) )  .Z F m.h.j.g.P oX3XjX=XQ p n.h.f.h ) 5.O.c.h.S.E.k.f.g.o u D S U U U H { 9. .7 v m.x.h.h.",
"h.f.f.f.f.x.o A o x.8 q f.f.g  .) ) ) :.J H P.H.S.m.L R >XuX6.v v.n.c.- f h c.h.h.j.h.k.j.h.j.h.g.x.p U U U Z V 3 h 2 7 F o h.h.",
"G.h.h.g.f.f.= y y K u A o h., ' _ )  .&.V 7 C.J.A.m.F 3 6 %.2 c.k.v.- c.c.g.h.n.n.n.h.h.1 > G.U.n.m.u U Y L ! G q f.f.h 3 : h.g.",
"h.h.k.n.f.g.q D U U Y S a S.C.| ) ) ) ) ) 7 N.S.j.j.c = d 2 > h.n.n.n.f.h.h.k.n.k.n.> > ] { ] [ 5 m ! D ! Y.a u f.g.f.f.; v g.h.",
"f.f.h.S.k.o S Y ! T .XOX(.Y.b *.%.) )  .q.m v.j.j.j.h.f.& % c.n.n.j.h.h.g.- c.n.n.n.c.1 1 < ] { { 2 | 7 k ! S K o o f.f.g.x.f.f.",
"O f.f.h.n.s U Y ! R #X3X@XT.b  ._ ) ) ..1.] N.n.j.k.h.f.& + f.h.h.h.h.< h < x x j h b c.n.j.g.- % l b G F F H U L K 9 g.h.h.g.g.",
"f.g.x.: P.L U U U ^.*XkX1XOXP.f ) _  .) :.] M.n.k.n.n.c.@ d.f.h.g.> h < - h 2 ' X.] | k M.n.g.g.f.- > i S J @.H Q U A 9 x.g.f.g.",
"f.x.: u K U U U U .X4X-X@X^ M.@ X.&.1.>.,.` ; h.k.k.n.M.f.d.f.c.o.{ l f g < - c.B.c.- ; ; c f.g.x.; < c 3 } e.Z U U U S a x.f.f.",
"f.g.f.x.a U U U U +X6X1X).G x.f.O.&.:X}.>.{ d h.h.c.% @ f.f.g.l  .` 4 2 - 1 % j V.n.g.g.< 2 h x.: 6 ( 6 { -.}.7.H U U U S 9 f.x.",
"f.f.f.f.u S S U U #X6X7X^ M c h.>  .:X9Xp.( k g.h.> < h.h.h.g &. .} ) 2 o.[ | 4 ` o.h - c.o.} & & #. .( ) &.[.8X$.Y U E p m.h.x.",
"g.f.f.o S U U U E #XdX6X^ M.n.h.h.o.[.iX9X*.7 o g.> c.k.h.< { ) %.X.g V.B.c.c.@ % |  .+.V.M.% @ # } #.! ~ V @.4.Z Y U K x.g.g.f.",
"g.f.f.X D U U U U oX6X6XR.n.S.S.S.< e.aXuX'.6 : @ < - n.c.2 ` } l V.k.n.Z.c.> * $ f { &.[ > f.- 2 ) @.R #X.XT S U U U y f.f.f.g.",
"f.f.f.X A U U U U Y -X7X5XZ.k.h.h.- 9.eXwX<X#.n d $ - c.h { { j n.H.S.V.V.g.g.* f 2 4 ) =.5.; f.f ) `.(.W ^.E U ^.E U S u g.g.f.",
"d.f.f.X D U W U U U Q @X8.h f.- n.f.l 8X8XyX5.C 2 f - > 2 { x S.S.n.n.n.- h x 2 2 2 4 { _ &.] c.; ( $.~ Y U U U @X).A o 9 x.f.d.",
"O O f.f.K U U U E .XQ A 7 2 g.M.b c.< e.[.wX}.{ 5 f > h { l c.A.J.n.> 1 h j j 2 { ( ` 2 ` ) } h ; { ) 6 H U U U ~ ^ t g.g.f.d.  ",
"O O f.f.u U U U W @XQ a c.V.h.c.2 ] ` *.=.[.eX5.` 2 f 2 4 > j.k.S.B.U.Q.V.< x 2 ` | ( { ` ) ) 2 2 )  .( B U U S L.m.o g.f.f.d.O ",
"O O f.= A U U U T ).R 9 S.K.S.k.< ) ) ) ) 9.pX;X) { 2 2 f n.j.x.n.S.K.H.A.g.b 5 ` :.*._ } ) 5 ` ) q.e.{ D U U D m.S.h.g.f.f.O O ",
"  O f.8 S U U U (.~ 6.n n.E.Q.b V.] ) ) ) %.eXyX#.) ` 2 > h.g.n.k.l.H.F.F.l.M.] ` ) -.&.-.` 2 ` _ ].:XV Y a w a n.H.n.j.n.f.d.O ",
"  O f.0 U U U ^.%X>X=XZ : z.K.b l h '  .) ) r.pXw.) ) 2 g.f.n.n.n.A.S.H.F.K.P.` } )  .>.:.' (  .p.uX2X! U a N.U.l.n.I.S.k.h.d.O ",
"f.f.f.= a U U W 2X<X6.m x.k.l.M.` 5 ] 1.e.%.,.aXeX%.) 2 c.h.n.n.n.n.k.z.S.D.b X.q.}  .0.q.%.) 1.sXlX2X.XU U L.S.k.k.n.h.k.h.d.f.",
"n.h.f.x.u U U J =X9X$.n v.k.h.g.<  .) ..}.}.<.}.sX[. .) h f.h.h.h.h.k.h.h.h.> w.[.*._ 2.p.%.) q.hXaX>X XD Y s h.h.S.J.h.k.h.d.f.",
"h.h.h.v.u U y A _.wX5.z > c.h.n.B.o.&.>.0.rXeX{.0XaXq._ 2 @ f.h.h.h.h.h.k.h.M wX8X*.-.}.e.) ) <.qXp.6.E w s p g.f.h.n.f.n.k.f.g.",
"h.g.h.c.p S 9 P.M 8.w.{ - g.M.h 1 B.' 1.i.rXhXsX0XrXeX<.} f = h.k.h.h.k.H.n.-XwXu. .&.}.,.) ) 1.}.-.7 9 h.p s x.f.f.f.h.h.h.f.g.",
"h.k.h.n.c A v H.J.P.G ! h h.n.c.> b { ) u.aXlXzXhXrXrXqXw.{ r o g.h.k.l.l.!.uX}.y. .&.}. .) 9.u.9.C r x.h.x.u o g.h.g.g.f.f.f.h.",
"n.n.k.h.0 Y 7 b S.k.o 8 - k.h.S.Z.2 ) ) ;.|.sXhXlXlXhXhXeXq.V G 0 9 9 P.!.pXqX1.;. .q.e.)  .,.=.! D L.m.g.= x.= g.f.f.g.g.h.h.n.",
"n.k.B.S.w U Z X.I.A.k.f.h.J.S.S.S.1 { )  .y.{.0XrXaXhXlXlXpXwX:X>X-X2X7XgXtXe.1... .q.%.) &. .$.T a G.N.u o f.g.g.f.h.h.h.h.g.n.",
"n.S.x.v.w D H | x h.h.g.f.n.h.n.> ; 2 )  .&.2.y.i.{.0XrXaXsXhXsXhXlXsXaXqXu.;.&. .:.:.) ) ) { R Y 0 o a S 9 f.c.h.x.h.h.h.g.h.h.",
"S.J.n.g.h.P.a v - g.g.f.d.f.h.f.f.* $ 5 )  . . .;.1.2.y.i.|.0X|.0X}.}.0.%.&.)  .>. . .%.w.x I W K u 0 A K x.b N g.g.h.h.g.f.h.g.",
"S.k.h.k.v.U.M.9 f.h.h.f.f.S.J.n.h.A.A.V.{ ) ) ) )  .) ..>.2.2.<.<.0.&._  . .#.:X9.) ..6.-XY.T.W s L e u v.A.c.- g.f.h.g.g.g.g.g.",
"f.f.- V.v r m.: : k.f.f.f.h.n.S.- 1 Z.O.] { ` ` ) ) ) ) ) ) _  . . .) _ &. .].~.` ) 6.-XM P.I U U S a s.H.J.j.g.g.f.g.g.g.f.f.f.",
"f.@ h $ 2 Z n r r p N.O f.f.f.h.h.- I.Z.1 j l f ] 2 ` ` { ] g 2 { ) )  ._ &.5.< | =X4X1Xv f.o w S I W.h.l.D.D.j.g.f.f.f.f.f.h.f.",
"d.+ # f { { k d D U I q = = g.H.H.j.S.l.j.S.G.C.M.g.g.- * - < 2 ( ) ) =.e.X.` ] =X,XOXOXY.h.S.G.u N.K.S.S.K.D.j.h.f.f.g.f.f.h.h.",
"* * $ ` ) ) l v r u S U K q b I.C.J.H.j.h.h.l.k.h.f.- < l ]  .' ( { r.yXr.' 4.`.-XU.s L x.j.J.H.g.k.H.l.E.K.h.g.g.f.f.g.f.f.f.f.",
"$ 2 { { ) ) ) ( 4 ; o F U D v 2 | O.1 > C.1 ; h g l ` ' %.' { | } e.eX8.k 8.3X@XI s L i > h.S.S.h.h.j.k.z.n.s.x.f.f.f.f.f.f.f.f.",
"d.$ ) ) ) ) ) ) ( 4 d v D U D n V { ` x x ` ( } ....+.[ g x *.q.} %.%.7 @X1X@Xm.N.Y.P.= M.S.J.H.h.h.S.A.o a y x.h.h.g.f.f.f.g.f.",
"d.# ( ) ) .. .( Z B J 7 J U W W Y B ( ) } *.=.{ g < C.g.* X.<.:.) 6 B (. XI x.g.A.H.A.f.j.J.H.j.h.h.z.m.L ^.s h.n.n.h.f.f.h.h.h.",
"d.* { )  ...&.%.( Z B C B H T H Y H { ) ) *.*.2 > - - $ { _  . .) B U E L x.h.f.g.h.G.h.h.n.n.k.h.k.S.u U a x.h.A.n.g.g.h.h.g.h.",
"f.f.; ` ) ) ) ) ) ) } ) 6 6.;X7.$.$.) ) ) ) ) { { { ` ) ) 7.:Xw.{ H U S u N.S.h.f.n.H.k.n.S.h.h.h.S.J.w u v.k.h.n.h.h.h.h.f.d.f.",
"f.f.f.; ` { ) ) ) ) %.) ( 6.7.:.t.0.,.) )  .:.,.2._ %.&.) #.4.M : y K 0 o n.J.h.f.g.n.h.h.h.k.h.k.F.S.h.g.h.h.n.n.n.V.n.g.f.O d.",
"f.f.f.c.- ; h 5 ( ) ` 2 5 { ) ) &.&.) ) ) ) q.p.2._  .} ` n v f.d.N.v.h.f.f.h.g.g.h.n.h.h.h.n.g.g.h.n.P.g.f.f.k.S.B.+.V.f.f.    ",
"f.d.f.c.h.h.h.c.< ` { 2 ; f { ) =.5.o.j ' ) ) _ ( { ] x V.x.h.l.S.H.S.S.n.f.f.f.f.h.n.h.h.h.x.x.g.g.n.n.g.g.h.h.n.h.c.g.f.f.d.  ",
"f.f.f.h.n.c.g.g.h.- % f * f.g ) q.~.C.S.; 2 2 h v I.n.h.h.h.S.H.D.j.h.B.n.h.g.g.f.g.h.k.h.h.f.f.h.k.h.h.g.f.h.f.g.h.h.f.f.f.g.f.",
"d.f.g.g.n.h.g.g.g.f.f.f.f.f.@ f ` h k.S.c.c.g.f.f.f.f.f.f.h.n.S.D.j.h.h.h.h.g.f.g.f.h.h.h.h.f.f.h.n.h.h.f.f.f.f.S.k.f.f.f.f.f.f.",
"d.f.f.g.n.n.g.f.f.f.f.f.g.h.f.f.@ f.f.k.S.f.f.f.f.d.d.d.f.g.n.l.D.h.f.f.f.f.f.f.g.h.h.g.h.h.g.g.h.n.h.g.f.f.f.h.F.S.k.h.f.f.f.f.",
"f.f.g.h.h.h.f.f.f.f.f.f.f.g.f.f.f.f.h.S.n.g.f.f.f.f.& + f.f.f.g.P.X n.n.f.f.f.f.g.h.g.f.h.h.g.g.h.g.g.f.f.f.h.S.K.l.h.h.n.f.f.f.",
"h.j.n.n.h.j.h.f.d.d.f.f.f.f.f.f.f.f.h.k.g.f.f.g.f.f.& + f.f.d.O 8 q x.g.f.f.g.f.g.h.f.g.h.f.f.g.h.g.f.f.f.g.h.S.E.k.f.n.S.f.f.g.",
"H.S.j.g.h.k.h.g.f.f.f.f.f.f.f.f.f.f.f.f.f.f.f.h.g.f.f.f.f.f.O . 9 X   a.f.g.g.g.h.k.g.h.f.f.f.f.g.n.g.g.f.f.n.k.z.S.f.f.g.h.l.h.",
"F.j.f.g.g.h.h.g.f.f.V.M.f.f.f.f.f.f.f.f.f.f.j.S.j.n.f.f.f.f.O   . . d.j.l.A.h.f.h.k.h.h.h.f.f.f.h.n.g.n.g.h.B.h.h.l.j.d.a.z.K.h."
};
