/* XPM */
static char *_dc7855e18924a37e5387cb62d266f97jXHO6VtVotfFmp3Y[] = {
/* columns rows colors chars-per-pixel */
"64 64 125 2 ",
"   c #54780C",
".  c #5B7E15",
"X  c #5E7D19",
"o  c #607F19",
"O  c #5D8115",
"+  c #5E8219",
"@  c #618416",
"#  c #668B17",
"$  c #63851D",
"%  c #68871F",
"&  c #65891E",
"*  c #698C1E",
"=  c #6D921E",
"-  c #648621",
";  c #688720",
":  c #668921",
">  c #6A8C23",
",  c #6B8D28",
"<  c #708F27",
"1  c #708F28",
"2  c #6D9125",
"3  c #6E9229",
"4  c #719326",
"5  c #749926",
"6  c #739826",
"7  c #719029",
"8  c #729328",
"9  c #72912A",
"0  c #70932B",
"q  c #72932B",
"w  c #709428",
"e  c #719529",
"r  c #70942A",
"t  c #71952B",
"y  c #73942B",
"u  c #72962A",
"i  c #73972B",
"p  c #769629",
"a  c #74932C",
"s  c #71942C",
"d  c #72952D",
"f  c #72962C",
"g  c #73972D",
"h  c #71942E",
"j  c #73962E",
"k  c #75942D",
"l  c #74972F",
"z  c #77962F",
"x  c #72952A",
"c  c #78972F",
"v  c #749928",
"b  c #759A28",
"n  c #74982A",
"m  c #779C2A",
"M  c #74982C",
"N  c #75992D",
"B  c #77982D",
"V  c #74982E",
"C  c #75992F",
"Z  c #769A2E",
"A  c #779B2F",
"S  c #769A2D",
"D  c #789A29",
"F  c #799B2A",
"G  c #789D2B",
"H  c #7B9E2A",
"J  c #7A9F2B",
"K  c #789A2C",
"L  c #78992E",
"P  c #799A2F",
"I  c #7B9D2C",
"U  c #7B9D2D",
"Y  c #799E2C",
"T  c #7A9F2D",
"R  c #789C2E",
"E  c #7B9D2F",
"W  c #7A9F2E",
"Q  c #7A9B2E",
"!  c #739630",
"~  c #779531",
"^  c #789730",
"/  c #789730",
"(  c #759830",
")  c #769931",
"_  c #769A30",
"`  c #779B31",
"'  c #779A32",
"]  c #769A31",
"[  c #799831",
"{  c #799A31",
"}  c #789B33",
"|  c #789C30",
" . c #799D31",
".. c #789C32",
"X. c #799D33",
"o. c #7A9E32",
"O. c #7B9F33",
"+. c #7D9D30",
"@. c #7D9D32",
"#. c #789B35",
"$. c #799C34",
"%. c #7A9E34",
"&. c #7B9F35",
"*. c #7B9E36",
"=. c #7C9F37",
"-. c #7A9D32",
";. c #7EA32F",
":. c #7CA130",
">. c #7EA030",
",. c #7CA034",
"<. c #7CA036",
"1. c #7DA137",
"2. c #7EA236",
"3. c #7EA234",
"4. c #7FA339",
"5. c #7FA339",
"6. c #81A132",
"7. c #80A033",
"8. c #80A43A",
"9. c #82A63A",
"0. c #84A83A",
"q. c #8AAA3F",
"w. c #8BAB40",
"e. c #90B242",
"r. c #93B344",
/* pixels */
"; ; ; ; % % $ $ $ $ $ % % ; ; ; ; - - ; - - 2 s $ $ + $ $ $ $ + O . + s ' 2 > B & & $ $ $ $ $ $ $ $ $ $ - > 3 s - 3 9 > $ $ - - ",
", > ; ; % % % % $ $ % % % ; ; ; ; ; ; $ $ - > 2 - > 3 , > $ $ $ $ O $ > 2 & $ > > > - & & & & & $ $ $ $ - - - > - > ; $ $ $ $ + ",
"9 1 > ; % % ; ; % % % % % ; ; ; ; - - - $ $ - > > s ' ' > $ $ $ & & $ $ $ $ $ & > > - $ $ $ $ & % - - - - - - - > > > - > 3 3 - ",
"k 9 , ; % ; ; ; ; ; ; ; ; ; ; ; - - - - - - ; > - , s 3 > & $ & & - & + $ > 2 2 2 > > > : & & $ $ % - > 2 3 2 2 > 3 s 3 s %.%.' ",
"k 9 , ; % ; ; > ; ; ; ; ; ; ; ; $ $ % - > > > > - & % - - ; > > - > - $ & 2 y y y s B ' B 3 > - $ & - > 2 3 , , - 3 s 9 3 3 s s ",
"1 , ; ; % ; ; ; ; ; ; ; ; ; ; ; % $ & - > > - & > & $ $ ; 3 3 3 2 > > - - - > > 2 3 s B s 3 > & & - - - - - ; - ; s ' s > - > > ",
"; ; ; ; % ; ; ; ; ; ; ; > > , , , > > 2 2 2 > $ > > > > > > 3 3 y > > 3 2 & $ > - : > > > - $ $ $ $ $ & - - - ; , s ' y > > ; - ",
"% % % % % % % % % ; ; ; > , , , B n y B B y > & - 2 s 3 > - - > s > > B s & $ 2 > : & & $ & & - $ $ $ $ - > 3 s - > > > , 3 > $ ",
"> ; ; ; ; ; ; ; ; % ; ; ; % ; y P 2 * 2 2 * > > $ > > - - > > - > - > 3 > & & 2 - + + - > - $ $ - $ + - > - - > ; - > ' k > - > ",
"; ; ; ; ; ; ; ; ; % $ $ % % 1 { R 6 6 6 6 2 2 2 & > 2 > ; > > - 2 > 2 3 > $ $ - > & & - & + $ & - $ $ > > - % - - - > 9 3 > - - ",
"% % ; ; ; ; % % ; $ $ % > , a { R n 6 6 2 * > 6 $ & > - > 2 , - 3 2 2 2 > $ $ $ - - > > & + $ > $ $ $ > > - $ $ - & - > > - & - ",
"$ % % ; ; ; % % $ $ % 9 { ^ a 8 F 6 4 2 * @ $ * O $ $ & > 2 3 > > > 2 2 > & & & & - > 2 > > > 3 % % - ; ; - $ $ - & - - - - % - ",
"$ $ % % ; % % % $ $ $ 1 k a 1 > F 4 = = # @ O # & & $ - > > , > - > > > > > > > - > 2 y B B 3 > - ; > - - - & $ - - - - - - - - ",
"$ $ $ % % ; ; % ; $ o $ ; ; , 9 R 4 = = = * # * B 2 - - > > > > - > > > 2 y 3 > 2 y s B ` ' > + % > , > - - - $ - > ; - - ; > - ",
"% % % % % ; ; ; ; $ $ $ $ % , P H = # = 5 5 6 6 o.2 $ $ : : > , 3 y 3 > 2 y 2 & 2 g ' B g s > $ + > s 9 3 , - $ $ - > % % ; - $ ",
"% % % % % ; ; > % % ; ; ; ; 9 P m = # 2 R :.;.R y & . O $ ; > 3 B ' s 2 2 3 > + - y ` s 2 2 2 > . ; k ' s 3 > + $ - > & % > - $ ",
"> - $ - ; $ ; 9 > $ $ > ; $ > o.y * & 2 2 > & > 2 > $ + $ > 3 y 2 > & $ $ & - > $ 2 ` o.y - + O $ - , 3 > - $ $ $ & ; > > > - - ",
"> ; - - ; $ $ ; > & & & & $ > y 2 2 y <.8.%.B s 2 > - & - > > 2 2 > - $ $ & > > $ > 2 2 > & - > $ , ' s $ . . $ % - - > > ; - - ",
", : - > - $ + $ $ - - $ $ > 2 2 ' 3 > 2 y B o.5.2 2 > > > > > > 2 > > & & - > > 2 2 > : - 2 B <.> % $ - 9 s ; + - - - - - - - - ",
", > > , > - $ + . & - + $ y R y ' 3 & $ $ - 3 ' 2 2 > > - & - > > > > : - > > > 3 2 > > > 2 ' <.9 - + - ' =.3 $ - - - - - - - - ",
"- - : > , > - + O - > $ & B o.6 > 2 3 3 3 > > & > > > & $ $ - > > > > > > > > > > > > > - - > > > s ' s > $ $ ; - - - & % - - - ",
"+ $ - - , 3 ; $ & 2 > $ & y y * - 2 3 > > 2 2 2 > > > & + $ - 2 - : > > > > > > > > 2 2 > - $ + - , 3 3 - $ $ - - - - - - & % % ",
"+ - - - 3 ! 3 % - > - $ & 2 2 & > 2 - O . & 3 g > 2 2 : $ + $ - & & - > > > > : 3 3 2 2 > > - & - $ + $ > 3 > $ & - - - - - $ $ ",
"; > > , s #.B > & & $ $ & > > & $ > > & $ - > - > 3 y 2 & $ $ $ $ & - > > > : & 2 > - & & - - - $ ; , > - $ & > % - - > - - $ $ ",
"- ; - $ - : > > y s > $ & $ $ > & & & & & & : > & & & & & & & & & & - > 2 2 > - y 2 : & - - - & $ $ - > ; ; > > 3 > ; > > - - 3 ",
"- - $ + $ - - - s %.o.o.<.B > > : - - & $ $ & & > > > > > > > > 3 2 : - - - - & 2 > : : > > & $ $ $ - ; - - > > % - % % % - > > ",
"- $ $ $ $ $ $ $ - 3 y B <.B & & 2 2 > - & $ $ $ > > > > > > > > > > - > > > > - - - - > > > & $ $ $ - - - - - > 9 k 9 - $ ; - $ ",
"- ; ; - ; - $ $ > y 2 3 <.<.y B y 2 > > - - & & - - : > > > > 2 - > > 3 y 2 - $ & & & - - - & & $ $ - - - - - > k %.' - $ > - . ",
"- - - ; ; ; $ $ > 3 > > B B 2 i 2 > - - - > - & $ $ & > > 2 3 y s y y 3 3 > & $ & & & & & & - > $ - - - - - - > - 3 > + $ , 2 + ",
"+ + + $ $ - - - & 2 > > 2 > O $ > & $ $ & - & $ & & : > 2 y s B B y > > > 3 s B : : - & $ & > > - - - - - - > > 3 3 > $ $ > > + ",
"+ + + + $ - > > > B ' B B 2 & 2 > - $ $ - > : & & - - > 2 3 3 y s 3 2 2 y B ' o.- > > > & & > > > > > - - - > 2 %.s > - - - $ O ",
"$ + $ $ ; > 9 s $ 2 , & * $ $ y y 2 - - > 2 > & & & - - > > > > o.o.o.<.o.y > $ & > 2 2 > - & : > > > > : > > 3 s - $ $ - $ + + ",
"X X $ ; ; , k { < > 8 6 p :.@.* > 2 2 > > > 2 2 & - - - > > > > 2 6 R R 6 # * 6 # $ & > & - 2 - > > 2 2 & $ > y 3 y - $ - $ . . ",
"o o $ $ $ % > , w.@.8 > * 6.r.e.2 2 2 2 > > 2 2 > > - - - - - - 2 4 ;.;.H 2 2 5 2 & > 2 & - , - > > 2 > & > 2 B y B 2 : , - X + ",
"o o $ $ $ $ % > 8 > > * @ > E E * 2 2 2 > > 2 2 > > > > > > > > = 2 n :.:.n 6 i B 2 2 2 & : 2 - > * & # * 2 y B > y > : , - . + ",
"o $ $ % % ; , 9 @ * P 6.8 * * # & * > > * & * > - - - - > > 2 3 * * = 6 n 6 2 2 B 2 2 2 & - 2 & > & # # > y y y - 2 > - , - . + ",
"% ; ; ; ; > < a * > P @.< * > * * * > > > & * > & & $ $ $ - - > 2 # # * 2 > > > y > 2 > $ & 2 & & > > * 2 B y > > 3 3 2 9 > $ - ",
"> > > ; % ; > < $ $ > a * $ * & 2 2 6 2 2 > > > y 3 > - - - - : 2 * # * > > > 6 2 & > > $ & > $ & 2 6 2 y B y & & 2 2 > , - $ - ",
"> > > ; ; ; , < p * < P p 8 8 ; 8 6 y 6 2 > & & ' g 3 > - - - > > * > 2 2 2 2 B > $ & > $ $ - O $ 2 6 > 2 B y & + > - $ - $ + - ",
"; ; > > , < a c q.8 $ * $ * 8 > 4 6 6 6 2 & & $ 2 > - $ $ $ $ - & & > y y 2 y B > $ > > $ $ $ O O * > # & 2 2 & $ 2 > & > - $ > ",
"< 8 8 > * * p 7.c a * $ $ > , ; R 2 6 2 $ $ & O & & - - - % $ $ $ & > > > > > 2 s 2 : & & & & $ & 2 6 2 & $ $ $ $ & > > - - > , ",
"* > 8 8 > > > 8 < , ; ; , k { k k 2 n B 2 2 2 & & - : > - - % $ $ $ % $ $ & - > > - & $ $ & & > * 2 y y 2 & & > & & > : - - ; > ",
"> < 4 4 < > > > % ; % % % > > % * @ * 2 & & > $ : : > > ; - - - $ $ $ + + $ % > & & & & $ & 2 y > * > 6 2 # $ & & - > : - - - > ",
"P 8 * * > < 8 8 $ % % $ $ % % $ $ O @ $ O $ > & : : : : - - - - - - - $ $ $ % - > - : > 2 2 y y n * @ > 2 # O O - : : - - - - - ",
"F 4 * & * < > > % > , ; ; , ~ { 2 * 2 y 2 y B 2 - - & & % % & & $ - : - - $ $ % 2 > & > 2 2 * $ <.> O & y 2 & $ - - & & - - - % ",
"& # & * > > * $ % , , % $ ; 1 k > * n :.B B B > - & & & $ $ & - + $ - : - $ $ $ > - & - > > $ . y * @ # y B 2 & - & $ & - : - % ",
"@ @ # & * * * % % , , % X X $ % > & 3 n 2 y y > > : & & $ % - - - - - ; - ; - > - > 2 > & & & * @ > 2 2 y B y & & & $ & - > - ; ",
"@ @ @ $ * * 8 9 $ , a 1 ; ; , 9 P 2 2 2 > y ,.o.> > : & & & - - : : : - - : 3 s > g o.y > > y <.O B 0.:.B o.B > & $ $ $ - > : - ",
"$ $ % ; ; ; > > % $ $ ; 9 > , <.8 R <.y & # 2 y # # & & $ & > 2 2 & & > > & & > 8.8.o.> & 6 B n $ 6 y n 8.<.2 & + $ $ - > : - - ",
"$ $ $ % % ; ; ; o $ X % < % % y 8 2 * & > 2 & O @ # * * * 2 B R 2 & $ & * & & > B n * . O > 6 2 $ 2 2 > y 2 $ O - $ $ - ; : : - ",
"$ $ $ % % % $ $ X $ X % , $ X ; > y R n 2 * * * & 2 2 * * 2 2 2 o.2 & & > * * * <.o.2 # > o.<.B # 6 2 & > & + $ , - $ $ - : : : ",
"$ $ $ % % % $ $ $ % $ % , % o ; % y :.B 2 * 2 n & 2 2 # # * & O <.y * # * * & @ 2 6 2 # * i n 2 $ 6 2 & & & & 2 3 > ; $ - : : > ",
"$ % % % % % % $ ; ; $ $ > ; $ ; * & $ $ > y 6 & O $ & & > 2 3 2 B 2 $ O & > & $ O > 2 & & > > & $ y y > > & & > 3 > : - - - ; - ",
"% % % ; ; ; ; % ; ; $ o ; > % > % & & & > y B y > $ $ 2 y y y o.2 2 & $ > y y > $ y o.y > 2 2 > > B B 2 2 > & > 3 > > > > - $ + ",
"$ $ % % ; ; ; ; % ; $ $ , 9 ; , $ 2 B y > 2 B o.<.> & y B & & y > 2 > & > y y 2 O > 2 & $ & & $ 2 ' s > > > ; 3 3 , > - - % $ + ",
"o $ % % ; ; ; ; $ ; % % k k , , % & $ & 2 B 2 $ 2.& O y y O . 2 # > * $ $ & & $ $ > > $ & > 2 # $ > & O $ - - 3 9 3 ; - $ $ + O ",
"$ $ $ % ; ; ; % ; ; ; ; ; ; % % ; 3 y > & - & + 2 3 y y 2 > > 2 ' y y ' y $ + - & - > > > : & & % $ $ - ; > - % 3 - & - & O . $ ",
"$ $ % ; , , > ; ; ; ; ; ; % % % ; 3 y 2 > > > & > > > > - > 3 s B > & 2 2 & $ - & - > > > - & & - - - - - - - - - % $ $ & & & & ",
"$ $ % ; , , ; ; % % % % % % % % O & > > > > - $ - & $ $ $ - 3 ' ' - + & > - $ & & & - > > - - & > > > - - $ ; > 2 2 > $ $ # $ O ",
"$ $ $ ; ; ; ; % $ $ $ % % % % % X $ > > > - $ + $ $ + O + & 2 y o.2 & & - & $ $ & & - : - - - - : > > - $ $ - 3 %.s > : & $ O O ",
"% % % ; ; ; ; % $ $ $ $ $ % % % % - > 3 , - & $ $ $ + + $ $ - - 3 > - - $ $ $ - & - - - - - - - - : , : $ - > s <.> $ 2 2 $ @ > ",
"1 , ; ; ; > ; ; $ $ $ $ $ $ % % - % - > ; $ $ - - $ $ $ $ $ $ + + $ $ $ $ $ - > - - - - - & & - - : : - - - , s 5.2 & 2 2 & # > ",
"^ 9 > ; ; > > > % % % % % $ $ % - $ $ % $ $ % 2 > - $ $ $ $ + + . X $ % - > ; - > - - - $ $ $ $ : : : : - > > 3 B s > $ & 2 2 $ ",
"{ a > % % % ; ; ; ; % % % $ $ % > $ $ - - - , ' 3 - $ + $ $ $ $ + + $ - 3 9 > + > > - % $ $ $ $ , , : : : > > > + 2 &   O :.<.& "
};
