/* XPM */
static char *a596f6872fcf43fdea78d192fd96b236OGXP0rsm7lE8yAja[] = {
/* columns rows colors chars-per-pixel */
"64 64 236 2 ",
"   c #4F1A2F",
".  c #4C1C31",
"X  c #53362E",
"o  c #592739",
"O  c #593835",
"+  c #682B3E",
"@  c #65363E",
"#  c #554C2C",
"$  c #58582C",
"%  c #594735",
"&  c #674C3B",
"*  c #635A35",
"=  c #596529",
"-  c #5D6B2C",
";  c #5F7E26",
":  c #5F732B",
">  c #5E6A31",
",  c #616B2E",
"<  c #607F26",
"1  c #61752D",
"2  c #617D29",
"3  c #636833",
"4  c #716E3C",
"5  c #667533",
"6  c #6C7B33",
"7  c #78783B",
"8  c #5B2642",
"9  c #5E2A43",
"0  c #652E47",
"q  c #732E44",
"w  c #683547",
"e  c #773747",
"r  c #753D49",
"t  c #6B3C55",
"y  c #753C55",
"u  c #5F565C",
"i  c #6A4447",
"p  c #78484A",
"a  c #6D495C",
"s  c #794858",
"d  c #6E5456",
"f  c #7B585C",
"g  c #787245",
"h  c #794663",
"j  c #735765",
"k  c #86394C",
"l  c #88564F",
"z  c #85485A",
"x  c #9A4558",
"c  c #985658",
"v  c #A3495C",
"b  c #8B6B53",
"n  c #8B4D68",
"m  c #865366",
"M  c #9A5967",
"N  c #8C5779",
"B  c #A54B63",
"V  c #B34D62",
"C  c #AA5969",
"Z  c #B25565",
"A  c #B25A6B",
"S  c #B8596A",
"D  c #A75A75",
"F  c #B75E72",
"G  c #9A6669",
"H  c #8C6973",
"J  c #986575",
"K  c #A5646D",
"L  c #B9616F",
"P  c #A86778",
"I  c #B36374",
"U  c #B96874",
"Y  c #BC6B7D",
"T  c #A4727D",
"R  c #BB737A",
"E  c #C35D6F",
"W  c #C16C75",
"Q  c #C96974",
"!  c #CA6877",
"~  c #C46D7B",
"^  c #C5747B",
"/  c #C8767D",
"(  c #D6727E",
")  c #5E8026",
"_  c #618127",
"`  c #65852A",
"'  c #68872D",
"]  c #67892B",
"[  c #6A8A2D",
"{  c #6A8D2D",
"}  c #6C8D2E",
"|  c #6E912E",
" . c #70922F",
".. c #6C8432",
"X. c #6D8C31",
"o. c #6E8E31",
"O. c #6D8B38",
"+. c #738C38",
"@. c #6E9131",
"#. c #729433",
"$. c #769935",
"%. c #799C37",
"&. c #769639",
"*. c #79953B",
"=. c #7A9C3A",
"-. c #7DA23A",
";. c #6E8347",
":. c #759345",
">. c #7B9658",
",. c #84A73E",
"<. c #809B5E",
"1. c #80A240",
"2. c #88A568",
"3. c #935E81",
"4. c #9B688B",
"5. c #937C8F",
"6. c #A76A88",
"7. c #BA6D81",
"8. c #A7788A",
"9. c #BB7789",
"0. c #A46E93",
"q. c #AA6F93",
"w. c #A87696",
"e. c #B47B99",
"r. c #AB7FA0",
"t. c #C77987",
"y. c #D77984",
"u. c #C77F92",
"i. c #878A90",
"p. c #B6858A",
"a. c #B58695",
"s. c #BA9598",
"d. c #98AF96",
"f. c #9596AC",
"g. c #B198A7",
"h. c #97AAAC",
"j. c #9DB2A2",
"k. c #BBA1A7",
"l. c #ADB5B7",
"z. c #C8868A",
"x. c #D9858B",
"c. c #D48C8C",
"v. c #D8908E",
"b. c #CC8293",
"n. c #C8879A",
"m. c #D68994",
"M. c #D28D9D",
"N. c #CA9497",
"B. c #DD9393",
"V. c #D79699",
"C. c #E48A8C",
"Z. c #E48D93",
"A. c #E98D93",
"S. c #E49393",
"D. c #EC9395",
"F. c #E19A97",
"G. c #ED9598",
"H. c #E49A9B",
"J. c #EA9C9C",
"K. c #F19698",
"L. c #F39C9C",
"P. c #DEA59D",
"I. c #E5A49C",
"U. c #EAA49E",
"Y. c #CB8DA3",
"T. c #CA98A3",
"R. c #D193A7",
"E. c #DA95A3",
"W. c #D998A3",
"Q. c #E69CA4",
"!. c #C8A8A8",
"~. c #D2ABB0",
"^. c #D8BAB6",
"/. c #EDA3A4",
"(. c #E5ACA3",
"). c #EDABA3",
"_. c #E4A4A8",
"`. c #ECACAA",
"'. c #F4AAA7",
"]. c #F2ADA4",
"[. c #ECB2A9",
"{. c #F6B3A9",
"}. c #F3B4AB",
"|. c #F4BAAD",
" X c #F9BBAE",
".X c #E4A8B7",
"XX c #E8B8B3",
"oX c #F3B5B3",
"OX c #F5BBB3",
"+X c #FABDB1",
"@X c #F8BEBA",
"#X c #D4C2BC",
"$X c #FAC0AF",
"%X c #E6C2BC",
"&X c #F6C3B6",
"*X c #FDC4B5",
"=X c #FDC9B7",
"-X c #FCC5B9",
";X c #FDCBBA",
":X c #F7D1BE",
">X c #FCD1BD",
",X c #94BAC6",
"<X c #B2BAC8",
"1X c #C6BACD",
"2X c #D7BACA",
"3X c #E5BAC9",
"4X c #9CC9D1",
"5X c #B6C7DA",
"6X c #AED1D2",
"7X c #B5D1D7",
"8X c #B2EEE4",
"9X c #D9C8C7",
"0X c #DED1CA",
"qX c #CDCCD8",
"wX c #E6C6C6",
"eX c #FBCAC2",
"rX c #FBD4C3",
"tX c #F9D8C8",
"yX c #FBDCCC",
"uX c #ECD2D2",
"iX c #EED7D4",
"pX c #FDE4CD",
"aX c #F9E5D8",
"sX c #E5DBE6",
"dX c #C4E6E8",
"fX c #D7E7ED",
"gX c #ECE9E4",
"hX c #E6EEEF",
"jX c #FCEDE2",
"kX c #F4E6E9",
"lX c #FCF2E5",
"zX c #FFF7EB",
"xX c #FFF9EB",
"cX c #E6F8F9",
"vX c #F8F7F7",
"bX c #FAFDFE",
/* pixels */
"` ` ' ` ` ` ` ` ` _ _ ` ` ` ` [ ' ` ` ` ` ' [ } ` ` _ ` ` ` _ _ _ _ _ } %.] { @.] ] ] ` ` ` _ _ _ _ ` ' ' { #.@.{  .#.` ` ` ' ' ",
"[ ` ' ` ` ` ` ` ` _ _ ` ` ' [ ' ` _ ` ` ` [ [ ' ' } #.#.' ` ` _ _ _ _ { $.[ ] { { { { ` ' ' ` _ _ _ ' ' ' [ [ { { { } [ ` ' ' ] ",
"o.#.#.` ` ' ` ` ` ' ` ` ` [ [ ` _ _ ` ` ` [ } ' o.#.#.#.[ ` ` ` ` ' _ _ [ ` ` ] } } [ ] ] ` ` ` _ ` ' o.[ [ ' ] } ` [ ] ] { @.{ ",
"[ #.[ ` ` [ ` ` ' ' ' ` ` ' ' ` ` ` ' ' ' [ [ [ [ ' ` ` [ [ ' ' ` ' ' ` ` [ o.#.@.@.{ #.o.` { ` ` ' [ o.o.[ [ @.#.{ #.| #. .$.#.",
"#.#.` ` ` [ ' ' [ ' ` ` [ [ [ ` ` ' [ ' ` [ [ ' ' ' ` ` [ } } [ [ [ [ ' ` [ o.#.} $.#.$.#.{ { ` ` ' ` [ o.} o.#.} { #.{ #.| { | ",
"{ } ` ` ` ` [ [ [ ` ` ` [ [ [ [ [ ' [ [ [ [ [ { ` { [ [ [ } o.o.o.o.{ { [ [ [ [ [ | #.$.#.{ [ [ ' ` ` [ [ ' [ [ [ #.=.@.{ { { { ",
"` ` ` ` ` ' ' ` ` ` [ [ [ [ [ { [ #.} #.$.o.} ` - - - - - - - - , , , 5 - - - ' { [ [ ] ` ` ` ' ` ` ' ` ' ' o.o.o.} %.#.{ { [ ] ",
"[ { [ ' ' [ ` ` ` ` ` [ [ [ { #.%.#.} #.$.{ ` 3 r r r r r r r r r r r r r r p 3 ` ] ] [ ' ` ` ` ` ` _ ` [ [ o.o.[ ] { { @.{ ] ] ",
"[ [ [ ' ' [ ' ' ' ` ` [ ` ' [ $.$.} { ' 1 : b G J.L.K.G.D.D.G.G.G.G.D.D.D.L.J.G b 1 - : ` ' ' ` ' _ ` ' [ } { [ [ ` { #.&.[ [ [ ",
"' ' ' ` ' [ [ ' ' ` ` ' ] ' @.| $.&...3 i i N.*X*X X'.L.D.A.C.A.K.L.L.L.L.].*X*XP.p w i , 2 ' ` ` _ ' [ o.[ ` ` [ ` { #.#.[ [ ' ",
"` [ [ ' [ ' ' ` _ < _ [ o.[ #.%.$.3 O G |.|.&X*X=X*X*X*X*X{.W ( A.D.L.L.L.'. X*X=X|.|.(.p O , ` _ _ ' [ [ [ ` ` ' ' [ [ [ [ ' _ ",
"_ ` ' ' ' ` ` ` _ _ ' o.#.#.} | 6 c B.}.*X*X*X*X=X*X{.$X|.C.).|. XS.( D.{.].'.+X*X*X=X*X[.c.p 6 ' o.[ ' [ [ ` ` ` ' [ ` ` [ ' ` ",
"_ ` _ ` ' ' ` ` _ < ' [ #.=.} - p F.*X*X*X*X*X*X{.{.+X].S.].*X=X=X X).U.C. X X].*X=X*X*X*X+Xc.p > ' ` ] [ [ ` ` ` [ [ ' ' [ ' ' ",
"_ ` ` ` ` [ [ ` _ < _ ` ` [ # b (.*X*X*X*X*X*X*X{.+X=X/.C.*X=X=X=X=X;X|.C. X=X].{.*XrXtX*X*X+XI.f = | | [ o.[ _ ` ' [ [ [ ' ' ` ",
"_ _ ` ` ` [ [ ' ' o.' ` ` o.# 9.=X*X*X&X*X*X*X*X=X;X+XJ.J.*X=X=X=X;X=X*X].U.=X=X{.).yXaX;X=X*X*Xm $ =.=.` o.` _ ` ` ` ' ` ` ` ` ",
"` ' ' ` ` ' [ [ ' ' ' ` ' 1 & V.=X+X`.yX;X*X*X*X;X>XU.S.=X=X=X=X=X=X=X=X*XS.).=X;XI.V.yX>X;X*X+XK * o.$.] #.o._ ` ` ` ` ` ' ' ` ",
"` ' ` ` ` ` [ o.[ ' ' ' : & W {.&X{.&XtX=X{.&X=X;X=XI.).>X>X;X>X;X;XrXyXrX Xx.|.;X).z.wXaXyX-X+XJ.c * ' ` o.` _ ' ` ` o.[ ' [ [ ",
"o.' ` ` ` ` ` ` ' ' ` 1 i / '.+X XS.|.aX}./ *X=X;X}.H.pXpXpXrXpX>X;XyXzXpX$Xy.|.=X=Xc.N.xXxXtX].'.J.M * 2 _ ; ` ' ` ` [ o.[ [ ' ",
"o.[ [ [ ` ` _ _ _ ' ` % ^ {.*X*X].S.:X>X).W $X=X=XU.F.pXpXpXrX>X;X>XrXtX>X+Xy.].*X=Xc.z.pXpXtXU.].*XU.c * #.` ` ' ` ` ' o.[ [ [ ",
"[ [ o.o.` ` ' _ _ ' ` X V.*X*X+Xx.].;X=XJ.U $X;XU.Q F.pXpXrX>X;X;X>X>X=X X`.Q y.*X=X(.z.tXrX;X|.F.*X*XR * =.[ ' ' ' ` ` ' ' [ [ ",
"` ` [ #.} ` ` _ ` o.' X N.*X*X).x.+X;XOXb.L +X;XB.V B.yXyX;X;X;X;X;X;X*X'.m.Q E  X*X}.^ &X=X*X*XS.].=Xc.l { [ ` ' ' ` ` ' ' ` ` ",
"_ _ ` [ o.o._ _ ` ' ` X N.*X`./ ).*X=XOXb.L }.[.x.Z t._.>X=X*X=X=X=X=X}.E.u.E S _.}.}.S F.*X*X*X).K }.J.Z 7 ' ' ' [ ' ' [ [ ` ' ",
"_ ' ` ` #.&.[ ' ' ' ` X V.+XV.U |.*X=XOXb.L `.M.m.( ~ W.;X=X*X*X*X*X*X`.b.S E E m.W.}.Z v.*X*X*X(.w P.).S c ..[ [ [ [ [ ' ' _ ` ",
"` ' ' [ #.#.#.' ' ' ` X N.Q.n./ +X*X*X`.b.Z m.M.m.y.~ V.XX&X}.+X+X}.+X_.I q e x b.E.).Z B.*X*X*X(.w P.).V c ..' ' ' ' [ [ ` _ _ ",
"` ` ` ' o.` ` o.#.{ [ X c.E.7.B.*X*X+XE.b.F A M.m.y.F M.E.`.V./.Q.H._.t.I C z C b.M.V.V B.*X*X*X(.w V.U.V c ..[ ' [ [ [ [ ' ' ' ",
"` ` _ _ ' ' ` @.#.#.6 p u.M.A /.*X*X+XV.x.Z.U t.y.Z.L t.M.M.M.M.M.M.b.W Z.L.Q B.b.M.u.v B.*X*X*X(.w 9.m.A l ..o.[ [ [ [ ' [ [ [ ",
"' ` _ _ ` ' _ ` [ ..O z.M.M.A /.*X+X`.u.x./.Z.S L V.V.U u.M.M.M.M.n.~ B.OXB.V.tXm.u.t.v v.*X*X*X(.w 9.E.z.O ` o.o.@.o.[ ' ' ' ` ",
"' ` _ _ ` ' _ ` o.+.O W.E.M.A /.*X+XE.U x.c.t.t.M J wXm.L u.M.M.b.Y / eX9XG s.^.P x ( W c.*X*X*X(.w 9.E.V.O ` { @.-.#.] ` ` ` ` ",
"_ ` ` ` ` ' ` ` { ` O W.E.M.A U.*X+XE.t.^ 0   . . . f ^.P.S t.t.I t.%Xk.o . . .   + t.~ c.*X*X*X(.w 9.E.V.O ` [ { #.{ ` ` [ ' _ ",
"_ _ _ ` ' ' ' [ ] < O V.E.M.A U.*XOXM.t.0 . o 8 8 8 o f aX_.^ W c.&X!.9 o 8 8 o o . + C c.*X*X*XP.0 9.E.M.O ' } o.} ] ` [ ' ` _ ",
"< _ _ ` ' ` [ [ { ..O b.M.7.v U.*X}.A + a a w w 9 9 9 T lXlXaXaXaXaXiXJ 9 9 9 9 8 h a o c.*X*X+XR w J M.9.X ` } $.=.] ` ' ` _ ; ",
"< _ _ ` ` [ #.#.{ ` % P 9.M B U.*X{.Z s g.m s.p.9 9 9 s.zXzXzXzXzXzXzXp.9 9 9 m J N g.y c.*X*X X/ N.z 9.P % ' o.@.| ] ` ` _ _ < ",
"< _ _ ` ' [ #.#.| #...O v Y A I.*X{.Z T.2XJ p.p.m z z !.xXzXzXzXzXzXzXs.z z m N.(.J 2Xa.c.*X*X X~ D.C x O ` #.#.#.#.[ ` ' _ _ < ",
"; < _ ` ` [ [ #.=.$.o.X x Y A I.*X{.Z x.wXT T g.k.8.T ~.xXzXzXzXzXzXzX!.T 8.k.k.p.8.wX^ c.*X*X{./ Q.I x X ' } #.#.$.{ { o.` _ < ",
"; < _ _ ` ` [ } #.} [ X x U ~ ^ +X+X^ y.iXs.<X7X7X7Xg.^.xXzXzXxXzXzXzX^.g.7X7X7X<Xs.iX~ v.*X*Xx.y./.A x X o.#.=.} [ [ #.} [ _ < ",
"_ _ _ ` ` ` o.} [ [ #.O x x V.U {.*XF.Z wX!.5XdXdXdXl.uXxXzXjXiXjXzXzXuXl.dXdXdX5X!.wXZ F.*X*X/ _.z.x k X [ #.#.} } [ [ } { _ _ ",
"o.[ ` ' [ [ &.#.{ } #...& + P C ).*XU.Z %X^.T.gXhXcXgXlXzXxX^.A ^.xXxXzXgXcXhXgX!.%X%XU  X*X+X~ R M q & 2 #.#.{ { #.%.[ } [ _ _ ",
"} [ [ [ ` [ o.{ ` ` } $.` $ k x (.*X+XW XXrX&X-XrXlXxXzXzXzXaXwXaXzXzXzXzXlXtX-X&XeXXXR +X*X`.F +   * ` #.%.#.` ` [ o.` o.} _ ' ",
"[ [ [ [ [ [ { } } [ } %.' 1 c x v.*X*XW t.[.-XeXyXaXxXxXxXxXxXxXxXxXxXxXxXaXyXrX;XOXz.W &X+XE.F B e > [ } #.%.[ ` ` ` { [ { ` ' ",
"[ } [ [ [ } #.=.=.#.' ' % @ P u.I ).*XW q m z.N.#X9X9X0X0X0XiXaXiX0X0X0X0X9X#X!.z.K q W &X_.M.F 7.q.s * ' { #.' ` [ ' ' ` ` ` [ ",
"o.o.} [ { [ $.$.#.o.' $ J n.q.u.A V.*X^ B h 0 0 0 w 9 o w + M A.R 0 w w o 0 w 0 0 y M F.XXM.M.A 6.Y.Y.m $ ] ` ` ` ` ` ' ' [ [ o.",
"o.} #.#.{ [ { } } o.} # n e.qX^.C M.oXV.A D 0.w.4.4.h k ~ P K U P D E S q N 4.4.0.D Y `._.Y.M.7.qX1Xw.y $ [ ` ' ' ` [ [ [ [ ] o.",
"o.#.[ } [ [ [ [ [ [ [ # h r.fXcXk.Y 7.7.F B D n.w.N e Q Q..Xw.5.a.E.y.G.t.w 3.w.D B I 7.7.Y Y ~.cXqX0.t $ [ ` ` [ [ [ [ [ ] ] [ ",
"#.%.} { } #.o.[ ` ` ` $ s w.fXhX9Xb.I D D D Y n.N y Z y.wXuX3XsX3X.XZ.'.oXI y 3.D D D D I D 9.9XhX1X0.a $ ` ` ' ` ' [ [ ' ` [ ` ",
"#.} { } o.&.o.[ ` [ [ ` 6 c a.2X~.R.Y.n.0.e.Y.J z R y.x.kXvXuX3XkXuXZ.G.}.`.I y 3.0.0.n.Y.e.e.!.T.P l 6 ' @.` ` ` ` [ ' ' ` ` ` ",
"` ` { } [ [ [ [ ` } ` ` _ 6 g s s I n.n.w.e.6.m V.Z.D.S.vXbXbXvXbXuXZ./.Q.eXoXz.s 3.0.e.Y.n.0.h d 7 6 ] $.=.] ] ' ` ' ' ' ` ` ` ",
"` ` ` ' [ [ [ [ ` #.#._ _ ` : = 3 x u.e.0.N z P.oX/./._.bXbXbXbXbXuXZ.oXS.-XeXeXp.t 4.k.w.P b , : { #.{ | $.$.{ ' ` ` ` ` ` [ ` ",
"_ _ _ ` [ [ o.} ' o.o.[ [ ' ` $.*.l 7.q.4.i z.eX`.oX/..XbXbXbXbXvXuXZ.@XZ.@XeXeXoXK i >.J c +.%.] @.1.#.#.-.$.{ [ _ _ ' ` ` [ [ ",
"` ` ` ' ' [ o.[ ` ` _ } #.' @.=.#.*.c 6.J 4 U J./.-XQ.M.3X3X3X3X2XW.x.-XJ./.oXoXx.F f ..l 7 =.$.[ o.$.| ,.-.[ ] ' _ _ ' ` ` ` ` ",
"_ ` ' [ ` ` [ ` _ _ _ ` ] ` ] ] { #.7 g g & U S y.OXm.P 8.8.w.8.8.6.7.oXoXy.Q Q S U % ` 6 ' #.#.{ [ [ } #.@.' ` ` _ ` ` ` ` ` ` ",
"_ _ ` _ _ ` ` _ ; _ ` ` ` ' ` ` | #.#.@.{ 5 O o k y.9.f.4Xh.4X,X,X,X8.y.( Q e o o * o.` ] #.=.$.] [ #.#.` ] ` ` [ [ ' _ _ ' ' ` ",
"_ _ ` ` ` ` _ _ _ ' _ _ [ ' ' ' [ @.=.$.` @.o.= p Z.N.l.fX6X8X6XdXqXg./.C.( S o , #.@.` { =.$.} ] { #.o.[ [ ] [ o.o.[ ` ` [ [ [ ",
"_ _ ' ' ` ` ` ` ' ' ` ` [ [ ' ' ` ` { @.{ #.@.[ 3 r w a j u u u u a t s r + @ 3 ` { #.' [ } o.[ { } #.} [ [ ` [ @.o.' ' [ [ ' [ ",
"_ ` ' ' ` ` ` ' ' ' ` ` [ [ [ [ ` ` ` o.@.} #.#.[ $ w N.T.8.X 6 $ s T.T.n.O , ` ` o.*.[ o.#.[ [ [ #.=.} [ @.[ [ o.[ [ [ [ ` _ _ ",
"_ ` ` ' ' ` ' ' ' ' ' ` [ ' [ #.' [ #.{ [ $.-.$.=.= f aXjX^.% &., H jXjXiXi ..{ ` ` o.[ [ [ [ [ } $.#.{ [ [ [ o.o.{ [ } ' _ < _ ",
"_ _ ` ' [ [ [ o.' ' ' ' #.&.' [ ` { @.` } #.} { =., p eXaX~.% ] = m aXaXXXw 1 [ [ [ [ { { [ o.[ ' [ [ { ` ` ` o.#.o.[ [ ` _ < ; ",
"_ _ ` [ [ [ [ [ [ ' ' ' [ o.` ` [ { :.>.>.<.j.j.j.h.H U J.R d d.i.s S.S.M 5.h.j.j.d.>.>.:.o.[ ' ' ' [ [ ' ' ' [ o.{ [ [ ` _ _ ; ",
"_ _ ` [ o.[ ' [ [ ' ' ` _ ` ` ` [ o.2.j.j.j.l.5X5X5Xi.o e r f.5X<Xj e e o h.5X5X5Xl.j.j.d.:.` ` [ [ [ [ ' ` [ ` ] [ [ ` ` _ ' ` ",
"_ _ ` [ o.[ ' ' ' ' ` _ ` ` ` ` ` _ o.&.o.o.+.>.>.>.;.= = > <.2.2.;.= = > >.>.>.>.O.o.o.o.[ ` ` [ [ [ [ ` ` ` ` #.} ` ` ` ` ` ` ",
"_ _ ` ' o.o.[ ` ` ` ` ` [ [ ` ` _ _ ` } #.` ` _ _ _ _ _ ` ] o.| $.{ ] ` ` ` ` ` ` [ [ ' [ [ ' ' [ [ [ ' _ ` ` [ %.#.} ] ` _ _ _ ",
"_ _ ' [ [ [ ` ` ` _ _ _ ` ' ` ` _ ` [ o.} ` ` ` ' _ _ _ _ ` ` { | ] o.o._ ` ` ` ` [ ' ` [ [ ' ' [ [ [ ` _ ` [ #.=.| { [ o.` ` _ ",
"] [ o.o.[ [ [ ` _ _ _ _ _ _ ` ` ` ` [ } [ ` ` ' ' ` _ _ _ _ _ _ _ _ ' ] _ ` ' ` ` ] ` ' [ ` ` ' [ ' ` ` ` [ [ #.,.} ` o.#.` ` ] ",
"$.#.o.[ [ [ [ ` ` _ ` _ ` _ ` ` ` ` ` ` ` ` ` [ ] ' _ _ _ _ _ < ; ; ) ) _ ' ' ' [ [ ' [ ` ` ` ` ' o.' ' ` ` o.} #.#.` ` [ ] { ] ",
"%.} ` [ ' [ [ ' ` ` ` ' ` ` ` ` ` ` ` ` ` ` { #.{ o.` _ _ _ _ < ; ; _ { { @.] ] [ [ [ [ [ ` _ ` [ o.[ [ ` ' @.[ { @.{ _ _  .-.] "
};
