/* XPM */
static char *_10a447b323747daaecf1a1fef58b99fjx3CLqHll7qGSiWc[] = {
/* columns rows colors chars-per-pixel */
"64 64 222 2 ",
"   c #666666",
".  c #6A6565",
"X  c #656866",
"o  c #6A6A66",
"O  c #6C666A",
"+  c #676A69",
"@  c #6B6B6B",
"#  c #67666A",
"$  c #726466",
"%  c #736769",
"&  c #746D6C",
"*  c #7A6C6D",
"=  c #776867",
"-  c #6D726E",
";  c #73726E",
":  c #78716E",
">  c #6E6B70",
",  c #746F72",
"<  c #796F73",
"1  c #7B6F7B",
"2  c #6E7472",
"3  c #6E7974",
"4  c #747474",
"5  c #797374",
"6  c #747875",
"7  c #7C7A76",
"8  c #757579",
"9  c #7A7479",
"0  c #757979",
"q  c #7D7D7D",
"w  c #825C6E",
"e  c #855C71",
"r  c #846C6D",
"t  c #8D6C6D",
"y  c #806366",
"u  c #916C6E",
"i  c #93666D",
"p  c #8D6676",
"a  c #8B6C72",
"s  c #8C6679",
"d  c #8B6A7A",
"f  c #866C76",
"g  c #916373",
"h  c #916D72",
"j  c #916579",
"k  c #946D7C",
"l  c #847475",
"z  c #8A7375",
"x  c #85767A",
"c  c #8B747B",
"v  c #827D7D",
"b  c #8D7C7C",
"n  c #867976",
"m  c #947677",
"M  c #95767C",
"N  c #9C757A",
"B  c #937B7E",
"V  c #997979",
"C  c #A06876",
"Z  c #77817D",
"A  c #7D817E",
"S  c #81817E",
"D  c #8A807F",
"F  c #7E7E81",
"G  c #777C80",
"H  c #9D6E83",
"J  c #837D81",
"K  c #8A7C81",
"L  c #8D7583",
"P  c #957383",
"I  c #9A7284",
"U  c #9F7D8E",
"Y  c #AA7D92",
"T  c #A47F91",
"R  c #B57993",
"E  c #A47489",
"W  c #EE5F97",
"Q  c #E85F9A",
"!  c #F25E98",
"~  c #DD7F8E",
"^  c #D56D96",
"/  c #DA6C95",
"(  c #D56C9A",
")  c #DB6D9A",
"_  c #C97597",
"`  c #C5759B",
"'  c #C77898",
"]  c #D5729A",
"[  c #DB719B",
"{  c #D27A9C",
"}  c #DA7695",
"|  c #CE6C93",
" . c #E97C8F",
".. c #F4798E",
"X. c #F7778C",
"o. c #EB6397",
"O. c #E66598",
"+. c #EC639B",
"@. c #E56E9C",
"#. c #E96C9B",
"$. c #E66896",
"%. c #F16294",
"&. c #F36895",
"*. c #F1629A",
"=. c #ED7D95",
"-. c #E2729D",
";. c #E87896",
":. c #F67393",
">. c #F37C93",
",. c #F97A93",
"<. c #F5769D",
"1. c #F77898",
"2. c #DD77A4",
"3. c #E473A1",
"4. c #F066A2",
"5. c #7D8181",
"6. c #818181",
"7. c #8D8283",
"8. c #8E8E85",
"9. c #868D8B",
"0. c #8A8E8E",
"q. c #8D8D8D",
"w. c #8F8F8F",
"e. c #8E8E8D",
"r. c #8D8D8D",
"t. c #888889",
"y. c #918182",
"u. c #94868C",
"i. c #918E8E",
"p. c #928C8D",
"a. c #9B8A8B",
"s. c #8A928F",
"d. c #8E908F",
"f. c #8D918E",
"g. c #87928E",
"h. c #91908E",
"j. c #909086",
"k. c #8E8E91",
"l. c #8D8E91",
"z. c #9E8390",
"x. c #928E91",
"c. c #938D92",
"v. c #9A8C94",
"b. c #8D9191",
"n. c #8C9191",
"m. c #909090",
"M. c #919191",
"N. c #9C9294",
"B. c #979897",
"V. c #A1848B",
"C. c #A9868B",
"Z. c #A3898A",
"A. c #A58393",
"S. c #AA8195",
"D. c #A48E97",
"F. c #A59393",
"G. c #DE818F",
"H. c #CC8A95",
"J. c #CA8693",
"K. c #D68493",
"L. c #DC8394",
"P. c #DC849B",
"I. c #D88A99",
"U. c #CE909B",
"Y. c #D7919C",
"T. c #C5868F",
"R. c #E48294",
"E. c #EB8393",
"W. c #E58897",
"Q. c #EC839B",
"!. c #E38A9C",
"~. c #E68599",
"^. c #F08296",
"/. c #D981A7",
"(. c #EDB9BE",
"). c #DEBFC4",
"_. c #FFAFC3",
"`. c #EDB7C7",
"'. c #EDBAC4",
"]. c #E2BFC6",
"[. c #FDBBC5",
"{. c #FFB6CD",
"}. c #FFBBCC",
"|. c #F3B9C6",
" X c #FFB5D1",
".X c #FDBAD2",
"XX c #DDC2C5",
"oX c #E3C3C6",
"OX c #E4C3CA",
"+X c #ECC5CC",
"@X c #ECC9CC",
"#X c #E8C6C8",
"$X c #F1C6CD",
"%X c #FEC4CC",
"&X c #F2C9CC",
"*X c #FCC9CD",
"=X c #F0C3C6",
"-X c #E5CDD0",
";X c #ECCBD1",
":X c #F2C7D1",
">X c #FEC6D4",
",X c #F5CAD3",
"<X c #FCCAD3",
"1X c #FECCD9",
"2X c #F4D1D9",
"3X c #F2D0D4",
"4X c #EDD0D5",
"5X c #FFDFED",
"6X c #FFD9F1",
"7X c #EAEAEB",
"8X c #FFE5EC",
"9X c #FCEEEF",
"0X c #FAE7E9",
"qX c #F7F3EF",
"wX c #FFE3F4",
"eX c #F5EEF4",
"rX c #FBEDF4",
"tX c #F5F5F4",
"yX c #FFF5F4",
"uX c #FDF6FB",
"iX c #FDFCFC",
"pX c #F7F9F5",
/* pixels */
"q q 6.q 8 4 8 8 8 8 4 4 4 8 8 4 4 ; ; 4 q A v J q.d.d.d.i.x.q.q.@ X X @ 0.k.n.q.K J F q 5 4 4 2 6 4 5 5 4 4 3 2 2 4 4 2 5.5.J K ",
"6.6.6.q 8 4 8 8 8 8 4 4 4 4 8 8 4 4 4 4 q A q v q.d.n.d.x.x.i.q.@   + @ 0.k.n.q.J J 5.q 5 5 8 4 2 ; 4 4 4 4 4 4 4 4 4 2 5.5.J J ",
"q q q q 8 4 4 4 8 8 8 8 4 4 4 4 < 5 4 8 q 5.5.6.l.k.x.i.p.p.i.r.@ .   + q.d.n.s.5.5.5.q 5 < 5 4 4 4 8 8 5 5 5 5 4 4 4 4 q J 6.J ",
"q q q q 8 8 8 8 8 8 8 8 8 8 8 5 9 9 8 0 q 6.5.5.n.n.i.i.i.i.q.r.@ @ @ @ q.q.n.s.5.5.5.A 5 5 9 5 4 2 4 4 0 5 5 5 5 5 8 5 q q q q ",
"6.q 6.6.q q q q q.q.q.q.q.q.q.q.q.k.0.0.x.x.k.k.n.n.d.q.q.h.f.r.8 4 4 4 i.i.d.0.q.q.s.s.0.q.k.q.> @ @ > q q 5.q v v v 7 5 8 8 8 ",
"6.q 6.6.q q 6.S m.m.m.m.h.m.m.m.m.m.s.0.x.x.q.k.n.n.d.q.d.d.i.r.8 4 4 5 p.p.x.m.x.q.0.n.s.n.n.k.O . O O A 5.5.5.v v v v 4 4 4 4 ",
"q q q q q q S q q.q.q.q.q.q.q.i.i.p.i.i.i.i.q.k.x.x.q.q.q.h.i.p.5 4 5 5 u.u.h.d.h.q.i.m.q.q.x.p.O . O . v q q q v v v S 4 4 4 4 ",
"6.q q q q q S q q.q.q.q.q.q.q.p.Z.C.C.Z.a.i.q.q.q.i.q.q.r.q.i.q.5 5 5 9 u.p.r.q.q.r.i.x.q.q.c.u.* * * = B M M M b v q S 4 4 4 2 ",
"6.q q q @ @ @ @ 8 8 8 8 8 8 8 l H.L.K.H.r 5 4 8 5 5 0 4 q q 4 0 0.q.x.q.8 4 6 4 A S 6.5.5.A 6.7.XX#X@X'.I.P.P.H.M n q S v v 5.A ",
"q q 6.q @       4 8 8 8 8 8 8 a L.>.=.K.t : ; 4 < * 8 8 , 8 2 6 0.k.c.q.4 2 3 4 q v v q A A q b @X&X<X[.~.=.=.} N n A A v v 5.A ",
"q q 6.q @   @ @ 4 4 4 4 4 4 8 a K.=.=.K.t : ; ; 5 5 8 6 & 5 4 4 l.x.v.x.3 3 3 6 v v v v 6.A F K &X*X<X[.Q.=.=.P.N v A A v K 5.5.",
"6.6.6.q @ @ @ @ 8 8 8 8 8 8 0 l T.K.K.T.z 5 4 4 & 5 6 4 l l l c z.A.S.V.8 2 4 4 v v v v q q q v #X=X=X(.Y.L.P.H.m v q q v K F 5.",
"q q q 6.t.q.m.q.q q q q q q q v b m N M o X   # 6.J q 7.XX:X+X`.{ [ [ _ P v v v 5 5 4 4 6 8 4 6 7 n n n t a z l 5 6 6 6 q q q A ",
"6.q q 6.q.q.m.t.S q q q q q q v v v n v + + @ O q 5.q b +X<X<X.X@.+.o.^ I J J q 4 4 4 2 8 4 4 4 ; ; ; : : 4 4 ; - 4 2 4 q 6.q 6.",
"6.q q 6.q.m.m.q.q q q q q q q q v v J q + + O # 5.5.q y.:X<X<X}.@.+.+.] P F 5.A 4 4 4 4 8 8 4 8 4 5 4 4 4 5 4 4 4 8 4 4 v S q S ",
"q q 6.6.q.q.q.q.S q q q q q q q v J F q + # O @ q 5.q y.].$X+X`.{ ) ( ` L G q q 4 5 4 4 5 8 8 8 0 9 0 8 0 0 8 0 8 q 4 4 v v q q ",
"q 6.q 6.q.d.q.m.d.d.q.q.8 8 4 8 5 5 4 2 4 4 ; 4 4 4 : 5 l x x x d j j s 1 0 2 4 t.8.8.f.r.q.k.c.x.q.q.q.r.q.q.q.q.q.q.t.,   + + ",
"A 6.q 6.q.m.q.d.q.d.q.q.8 8 8 8 4 4 8 6 4 4 8 6 6 4 ; : 5 4 2 4 0 5 9 < 8 0 2 4 r.8.8.f.h.q.M.x.x.q.q.q.q.q.h.q.q.q.m.q.@   @ + ",
"q q q 6.q.m.q.q.q.m.m.q.8 4 4 4 5 5 4 8 4 4 4 @ @ ; ; & 5 4 4 q 4 4 4 4 4 8 2 0 q.f.r.r.p.a.p.p.M.i.q.m.q.m.m.q.m.q.m.m.@   @ + ",
"q 6.q 6.t.q.q.q.q.q.q.t.6 8 8 8 4 5 5 4 6.F q J K x n n 5 5 4 & 5 4 6 4 4 4 2 0 n.B.B.B.v.F.F.N.p.q.q.q.q.q.q.r.q.t.t.t.@ @ @ X ",
"8 8 8 8 8 8 8 8 6.6.6.t.q q q 6.S q q q.7XiXuXrXOX+X;XXXn & ; 6 7 q q q % % . , eXuXuXeX-X@X#XXXv 8 8 8 8 8 8 8 @ @ @ @ q q q A ",
"8 8 8 8 4 4 4 4 q q q q q q q S A S S t.pXiXiXuX2X,X,X@Xz : 5 ; q S A q $ $ . , eXiXiXuX2X,X,X@Xl 4 4 8 8 4 4 4         6.q q q ",
"4 4 8 8 4 8 8 8 q 6.q q 6.q q q q q 7 t.tXiXiXyX3X&X,X@Xz * 5 4 q S A A % $   4 rXiXiXuX,X,X,X@Xx 4 4 8 8 8 8 8 @ @   @ q 6.A q ",
"8 8 8 8 8 8 8 8 q q 6.6.t.t.t.t.7.B B a.8X9X8X8X%X[.[.|.C g k f v S A A @ @   : 8X8X8X5X}.}.}.`.c 8 8 8 8 8 8 8 @ @ @ @ q q A q ",
"q.q.q.q.q.q.q.q.6.q q t.tXpXtX9X;X:X$X[.Y.I.W.Q.E.E.Q.=.-./ / _ P K A Z 5.A q b H.!.!.Q.;.$.@.{ V.q.q.q.q.q.q.q.q.q.t.t.@ @ @ @ ",
"q.q.q.q.d.m.m.h.q q 6.t.pXiXiXiX,X>X%X[.W. .>.......,.:.&.*.*.) H J F 5.F q v m K.=.>.:.&.%.o.] A.q.q.q.q.q.q.q.q.m.m.q.@   X @ ",
"q.q.q.q.q.q.q.q.q q q t.tXiXiXuX2X,X<X[.W. .>.......1.:.&.o.+.( H J J F F v v V K.>.,.:.&.%.+.( A.i.h.m.m.m.m.m.q.m.m.t.@     @ ",
"h.q.q.q.q.q.q.q.6.q q t.7XpXpX9X-X@X+X'.Y.K.L.~ G.L.L.} } ^ ( ` P J J F F q v m H.L.R.;.} / ( ` z.q.q.q.q.q.q.q.m.m.q.t.@ @ + + ",
"q q q q 6.6.6.6.q 6.6.q 6.q q v l z z z r t t u t t h h p p s f 9 4 8 4 @ @ o $ r t t t p p s f 9 8 8 8 8 8 8 8 q q q 6.q q A 5.",
"6.q q q q q q q 6.q q q @ 4 4 & : 5 * & 5 5 & : : & 5 5 4 4 0 0 0 4 8 4 @     o : ; ; 4 4 4 9 8 4 4 4 4 4 4 4 4 6.q q 6.q 6.A q ",
"J J v v v v q q v q q J 4 0 q 4 ; 4 4 4 0 0 8 9 5 5 5 5 4 4 8 4 4 2 4 4 . . O . 4 4 4 4 4 4 4 4 4 4 4 4 8 8 8 8 q q q q q 6.5.A ",
"q J v v 7.y.y.y.M M M c < 4 4 4 6 4 0 0 8 4 0 4 9 5 5 8 4 4 8 8 A q A q * = r * 5 0 0 0 0 5 8 8 8 8 8 8 8 8 8 8 q v 6.6.J v 5.5.",
"5.q v 7.XX@X@X(.K.L.L.H.$   . @ 0.l.q.x.4 4 4 4 q q v q 5.5.F t.7XpXtXqXOXOX+XOXv.c.x.x.x.q.0.q.i.i.q.0.q.0.0.q.x.p.m.m.p.i.d.g.",
"5.q v b @X*X*X[.E.>.=.K.y   . @ k.k.x.x.8 4 4 8 A q v 6.0 q q t.tXiXiXiX2X<X1X:XD.p.c.c.x.k.n.q.i.i.q.0.l.l.n.l.c.c.k.m.u.i.d.g.",
"5.5.v B $X*X%X%XR.>.=.K.y .   @ c.c.x.q.8 4 4 8 v q q S 7 6.S t.uXiXiXuX1X>X>X:XD.v.c.c.k.n.m.i.i.i.d.d.d.d.s.n.i.p.q.x.p.c.m.d.",
"5.q 7 7.).&X&X|.K.L.L.T.r   . & p.p.q.q.q 0 8 q q S S v K b b u.8XwXwX6X.X X X.XR Y Y A.t.0.i.i.q.r.q.q.q.0.0.0.i.i.q.q.q.q.q.0.",
"v 6.6.v v 5 5 l t i i h & 4 4 5 8 8 8 6 4 4 4 4 5 4 - n oX,X&X|./.2.2.2.) -.-.[ [ [ [ ' c 5 8 4 4 4 6 4 8 8 6 6 q.i.m.0.6.5.5.5.",
"v q q A ; 6 6 - 5 * * 5 4 4 5 5 4 4 4 4 4 8 8 0 4 8 4 l :X<X%X}.@.O.Q O.O.+.O.o.o.o.+.^ j , 4 4 4 4 4 4 4 4 4 4 q.q.m.0.5.q q F ",
"v J q 5.2 2 2 3 2 4 4 4 4 4 4 5 : : * * 4 4 4 4 4 8 - 7 ;X<X<X}.3.+.4.+.+.+.o.*.*.*.*.[ j 5 4 4 4 5 5 5 5 4 4 4 r.r.m.q.6.q K K ",
"v J q q 6 8 4 4 4 6 4 4 5 4 4 5 t i h a 5 5 5 0 0 0 2 7 XX+X@X`.{ ( ( ( ) ) ^ ) ) ) ) _ d 5 5 4 5 5 5 5 5 4 4 4 r.q.i.t.6.q J J ",
"S q q J J K K J c.k.q.k.4 5 4 a J.L.K.H.Z.p.i.r.k.q.k.i.x l n l w e w e p j s d U S.Y U c.q.q.i.0.0.q.i.v q A q v v 6.5.A A F 6.",
"A q J 6.J K K K c.x.k.k.5 4 4 a L.>.=.K.C.p.i.q.k.k.k.q.9 5 5 4 O # # @ 4 5 4 0 k.M.v.c.l.s.r.i.n.n.x.q.A A q q v v v q A 5.5.5.",
"q q 6.q F q F F n.n.n.l.0 4 4 a L.>.^.K.C.p.h.m.l.l.k.q.0 4 5 4 . . X + : 5 5 0 l.l.u.c.q.n.d.s.n.b.v.c.A Z A S K v v v A 5.5.F ",
"q q q q 6.6.6.5.9.0.0.9.q 0 4 a H.L.L.T.Z.p.q.t.m.b.k.q.0 4 4 4 @ @ + - 4 5 5 5 p.c.c.p.N.v.p.v.z.T Y A.J A A S v v v 6.q q J J ",
"@ + @ @ q q q q 6.6.6.6.q q q n r t a z n S 6.6.F F F 6.q 5.5.5.t.r.q.q.r.r.q.q.6.v q 7.OX,X$X|.{ [ ) { A.c.i.q.i.h.d.t.- @ . # ",
"+ X @ @ v S 6.S q v v v F 5.J J 4 : : : q q q q 6.6.F 6.q q Z Z n.m.m.d.h.h.s.d.K K 6.7.$X>X%X}.#.*.W ) Y v.c.i.r.h.d.9.+   . @ ",
"@   @   q q q q v v v v F F F J 9 5 4 4 6.q A A q v q S v v A A q.k.k.q.i.q.0.0.J v q 7.+X>X%X{.@.*.W ) Y c.x.i.i.h.d.q.@   X @ ",
"@ + @ @ v q A A q v v v 5.F q J 9 5 4 2 v q q q q J v v v v q S p.N.N.N.N.B.B.B.7.K D a.|.[.[._.#.+.o.@.R Y A.A.u.i.r.q.@ @ @ + ",
"A q q v 4 8 8 8 8 8 4 4 0 8 4 8 < 4 8 4 5 4 8 4 4 4 4 4 8 4 4 n oX@X@X-XqXpXpX9X-X@X&X[.!.E.^.>.X.:.1.<.) ^ [ ` d 0 8 5 v v q F ",
"q q q q 4 4 4 8 4 4 4 8 ; 4 4 4 0 0 8 8 4 4 4 2 4 8 4 4 8 4 4 n =X*X,X3XyXiXiXyX4X:X%X[.E.....X.X.X.,.<.o.o.+.( s < 4 5 7 v F F ",
"6.6.J v 8 4 4 4 4 2 - 4 4 4 5 : 4 4 4 4 8 0 4 8 4 4 4 4 8 4 4 n $X<X<X2XuXiXiXuX2X<X<X}.Q...>...,.,.1.<.#.O.#.( p < , 5 q S 5.5.",
"q q q q 6 6 4 6 4 6 6 4 v l l z f s s d < 4 4 4 5 5 8 8 8 4 4 l OX+X+X+X8XwXwX6X.X{.{._.!.L.L.L.~ ~ L.} ] ] ] _ d 5 5 5 q 6.5.5.",
"6.6.6.6.t.q.q.q.6 ; & x XX;X:X|.] / ^ _ P J 5.5.v v q q 5 4 4 5 l x x k ' [ 3.-.@.#.#.} C t t t V V N I I H H I q.0.q.8.q.i.x.x.",
"q q q 5.q.d.s.q.4 5 l z ;X,X>X.X#.*.+.] I J 5.5.K v 5.A 5 4 8 4 4 4 , s ^ O.o.W ! ! %./ g * : ; 7 7 v v J K L K 0.s.d.f.q.q.p.c.",
"6.6.5.5.d.d.d.q.5 < r a +X<X>X{.$.o.O.] P J 5.5.v v A q 8 4 3 2 4 5 4 s ] O.+.*.*.*.*./ j 9 4 4 q S v v J J K K d.f.h.i.d.d.k.x.",
"q q 5.A q.q.q.q.5 5 5 z oX+X$X|.{ ^ | ' L F q q v v 5.q 5 4 4 2 8 5 4 d ' ^ ) ) ) ) ) _ d 5 4 8 A S v q F q v v r.r.r.r.d.d.k.x.",
"6.6.6.6.6.6.5.5.A q S v l l n z d j j d 9 0 8 4 5 5 8 8 5 5 8 8 v v F J P I I I S.Y S.A.c.x.i.q.5.5.6.q 6 2 4 4 4 4 4 5 q 5.F 6.",
"q q v v v q q A A A A q 8 ; 4 4 5 9 9 9 4 4 4 4 4 4 4 4 5 5 4 4 v v F F J J J J k.c.c.x.k.k.i.q.q q A q 6 2 4 4 ; 4 : 8 q 5.F 6.",
"A A 6.J J v v J 5.5.5.A 4 2 2 4 4 4 9 4 4 4 4 5 4 4 4 4 5 5 5 5 v v q q K K J 5.b.k.x.m.g.s.n.d.6.6.6.q 8 4 4 4 4 4 4 8 q q q q ",
"q q q q v v v v q q q q 4 4 4 4 0 8 4 , 0 5 4 4 4 4 8 8 4 4 8 8 v v A q J J F 5.n.l.m.m.0.9.q.q.F F q 7 8 4 4 4 4 8 8 q q A q q ",
"6 8 8 8 5 5 5 0 0 5 5 5 4 4 4 4     . @ t.r.d.q.r.r.q.q.5.q 5.5.A A A A q v q q F q v v 0 5 5 5 8 8 4 8 4 4 8 8 q q q q 6.6.v S ",
"4 4 4 4 4 4 4 4 5 4 4 4 4 5 5 , @ + . @ q.d.d.r.i.i.h.f.5.q A A A A A q A q v v J J v q 5 5 5 5 8 4 4 4 4 4 8 4 F 5.5.q J v q q ",
"4 4 8 8 8 8 8 8 0 8 8 8 4 8 0 4 +   . % r.d.f.f.i.i.m.f.5.q 6.J F F F J F F J J J F 5.q 8 4 4 8 5 4 4 4 4 5 5 4 F 5.F q q v q A ",
"4 4 4 4 4 4 8 4 8 2 8 8 4 4 5 4 + X $ % q.q.f.f.h.i.d.f.5.q K v J F J J J F J J J q A q 4 4 4 4 4 4 4 4 5 5 9 4 F 5.5.5.6.v q S "
};
